<?xml version="1.0" encoding="utf-8" standalone="no"?>
<!DOCTYPE svg PUBLIC "-//W3C//DTD SVG 1.1//EN"
  "http://www.w3.org/Graphics/SVG/1.1/DTD/svg11.dtd">
<!-- Created with matplotlib (http://matplotlib.org/) -->
<svg height="360pt" version="1.1" viewBox="0 0 360 360" width="360pt" xmlns="http://www.w3.org/2000/svg" xmlns:xlink="http://www.w3.org/1999/xlink">
 <defs>
  <style type="text/css">
*{stroke-linecap:square;stroke-linejoin:round;}
  </style>
 </defs>
 <g id="figure_1">
  <g id="patch_1">
   <path d="
M0 360
L360 360
L360 0
L0 0
z
" style="fill:#ffffff;"/>
  </g>
  <g id="axes_1">
   <g id="patch_2">
    <path d="
M45 324
L324 324
L324 36
L45 36
z
" style="fill:#ffffff;"/>
   </g>
   <g id="line2d_1">
    <path clip-path="url(#pa3442b8bd5)" d="
M47.79 324
L50.58 265.311
L53.37 249.467
L56.16 233.744
L58.95 225.368
L61.74 221.233
L64.53 213.791
L67.32 201.7
L70.11 197.881
L72.9 193.053
L75.69 184.555
L78.48 177.638
L81.27 181.163
L84.06 176.233
L86.85 174.561
L89.64 173.306
L92.43 171.657
L95.22 174.604
L98.01 169.602
L100.8 167.974
L103.59 160.907
L106.38 160.721
L109.17 147.768
L111.96 142.646
L114.75 131.156
L117.54 129.328
L120.33 128.421
L123.12 124.052
L125.91 117.822
L128.7 123.376
L131.49 114.413
L134.28 109.929
L137.07 106.846
L139.86 107.983
L142.65 103.387
L145.44 105.097
L148.23 108.726
L151.02 105.636
L153.81 102.316
L156.6 100.44
L159.39 98.9013
L162.18 92.1923
L164.97 91.3069
L167.76 90.2389
L170.55 99.906
L173.34 91.9768
L176.13 89.6474
L178.92 90.0919
L181.71 80.5626
L184.5 86.1004
L187.29 87.5914
L190.08 85.0084
L192.87 84.9923
L195.66 82.47
L198.45 76.3225
L201.24 73.7584
L204.03 75.1202
L206.82 72.8625
L209.61 63.6873
L212.4 57.7668
L215.19 62.0518
L217.98 62.3709
L220.77 55.3348
L223.56 56.1627
L226.35 53.3352
L229.14 52.543
L231.93 50.4254
L234.72 55.3472
L237.51 45.0486
L240.3 44.1932
L243.09 48.238
L245.88 47.2783
L248.67 53.0089
L251.46 55.3687
L254.25 56.8197
L257.04 50.9304
L259.83 54.72
L262.62 49.2944
L265.41 52.0696
L268.2 52.7007
L270.99 50.8488
L273.78 43.3545
L276.57 48.1389
L279.36 46.6857
L282.15 44.8935
L284.94 43.054
L287.73 45.1441
L290.52 45.3797
L293.31 44.0534
L296.1 46.305
L298.89 43.4889
L301.68 47.0721
L304.47 48.0171
L307.26 46.0033
L310.05 48.3846
L312.84 40.6371
L315.63 40.6934
L318.42 43.0301" style="fill:none;stroke:#000000;stroke-width:2;"/>
   </g>
   <g id="line2d_2">
    <path clip-path="url(#pa3442b8bd5)" d="
M47.79 324
L50.58 272.235
L53.37 254.724
L56.16 234.821
L58.95 232.628
L61.74 222.29
L64.53 217.976
L67.32 222.03
L70.11 215.109
L72.9 186.494
L75.69 179.06
L78.48 175.235
L81.27 147.285
L84.06 139.306
L86.85 127.974
L89.64 126.401
L92.43 113.269
L95.22 106.962
L98.01 90.3054
L100.8 84.2964
L103.59 74.6043
L106.38 84.39
L109.17 71.5386
L111.96 71.9753
L114.75 59.3216
L117.54 75.2625
L120.33 77.0542
L123.12 77.5539
L125.91 76.9414
L128.7 81.6961
L131.49 78.1506
L134.28 80.482
L137.07 75.7161
L139.86 81.0186
L142.65 84.9854
L145.44 81.2136
L148.23 80.0356
L151.02 108.58
L153.81 107.042
L156.6 113.019
L159.39 104.299
L162.18 105.997
L164.97 126.778
L167.76 125.959
L170.55 115.453
L173.34 130.269
L176.13 121.123
L178.92 143.042
L181.71 143.4
L184.5 148.743
L187.29 150.451
L190.08 152.252
L192.87 138.048
L195.66 130.833
L198.45 128.806
L201.24 125.416
L204.03 127.367
L206.82 121.376
L209.61 109.474
L212.4 116.535
L215.19 121.537
L217.98 133.073
L220.77 147.468
L223.56 146.515
L226.35 158.832
L229.14 148.499
L231.93 142.891
L234.72 151.912
L237.51 144.869
L240.3 148.407
L243.09 137.32
L245.88 154.588
L248.67 136.273
L251.46 140.544
L254.25 127.774
L257.04 140.236
L259.83 137.576
L262.62 132.814
L265.41 132.3
L268.2 143.411
L270.99 139.626
L273.78 132.15
L276.57 128.204
L279.36 125.318
L282.15 105.787
L284.94 95.431
L287.73 85.3958
L290.52 86.3653
L293.31 67.5425
L296.1 55.9109
L298.89 53.2476
L301.68 46.2956
L304.47 50.5211
L307.26 47.6728
L310.05 50.0399
L312.84 52.4327
L315.63 49.551
L318.42 47.4703" style="fill:none;stroke:#0000ff;stroke-width:2;"/>
   </g>
   <g id="line2d_3">
    <path clip-path="url(#pa3442b8bd5)" d="
M47.79 324
L50.58 264.211
L53.37 239.59
L56.16 220.214
L58.95 200.519
L61.74 190.116
L64.53 197.317
L67.32 185.769
L70.11 175.343
L72.9 167.43
L75.69 165.525
L78.48 145.829
L81.27 148.624
L84.06 147.486
L86.85 147.031
L89.64 145.71
L92.43 145.976
L95.22 154.445
L98.01 143.912
L100.8 142.126
L103.59 159.817
L106.38 152.643
L109.17 154.422
L111.96 147.418
L114.75 156.392
L117.54 153.154
L120.33 159.172
L123.12 160.645
L125.91 156.683
L128.7 154.985
L131.49 143.431
L134.28 140.4
L137.07 143.581
L139.86 139.296
L142.65 140.582
L145.44 144.243
L148.23 144.391
L151.02 143.132
L153.81 154.087
L156.6 150.571
L159.39 156.579
L162.18 157.148
L164.97 156.241
L167.76 158.238
L170.55 151.767
L173.34 160.927
L176.13 151.835
L178.92 152.726
L181.71 147.867
L184.5 155.25
L187.29 161.099
L190.08 156.076
L192.87 163.685
L195.66 154.009
L198.45 135.919
L201.24 147.707
L204.03 141.408
L206.82 146.069
L209.61 139.252
L212.4 138.545
L215.19 143.295
L217.98 142.373
L220.77 146.053
L223.56 145.425
L226.35 153.866
L229.14 166.284
L231.93 153.856
L234.72 160.71
L237.51 167.139
L240.3 171.379
L243.09 168.693
L245.88 167.344
L248.67 167.062
L251.46 174.183
L254.25 174.457
L257.04 175.862
L259.83 171.697
L262.62 191.76
L265.41 190.256
L268.2 197.303
L270.99 199.206
L273.78 209.189
L276.57 194.159
L279.36 206.33
L282.15 199.588
L284.94 206.828
L287.73 203.192
L290.52 210.902
L293.31 210.614
L296.1 210.078
L298.89 212.792
L301.68 214.891
L304.47 212.222
L307.26 223.011
L310.05 226.839
L312.84 236.106
L315.63 233.621
L318.42 237.01" style="fill:none;stroke:#ff0000;stroke-width:2;"/>
   </g>
   <g id="matplotlib.axis_1">
    <g id="xtick_1">
     <g id="line2d_4">
      <defs>
       <path d="
M0 0
L0 -4" id="mcb557df647" style="stroke:#000000;stroke-linecap:butt;stroke-width:0.5;"/>
      </defs>
      <g>
       <use style="stroke:#000000;stroke-linecap:butt;stroke-width:0.5;" x="45.0" xlink:href="#mcb557df647" y="324.0"/>
      </g>
     </g>
     <g id="line2d_5">
      <defs>
       <path d="
M0 0
L0 4" id="mdad270ee8e" style="stroke:#000000;stroke-linecap:butt;stroke-width:0.5;"/>
      </defs>
      <g>
       <use style="stroke:#000000;stroke-linecap:butt;stroke-width:0.5;" x="45.0" xlink:href="#mdad270ee8e" y="36.0"/>
      </g>
     </g>
     <g id="text_1">
      <!-- 0 -->
      <defs>
       <path d="
M31.7812 66.4062
Q24.1719 66.4062 20.3281 58.9062
Q16.5 51.4219 16.5 36.375
Q16.5 21.3906 20.3281 13.8906
Q24.1719 6.39062 31.7812 6.39062
Q39.4531 6.39062 43.2812 13.8906
Q47.125 21.3906 47.125 36.375
Q47.125 51.4219 43.2812 58.9062
Q39.4531 66.4062 31.7812 66.4062
M31.7812 74.2188
Q44.0469 74.2188 50.5156 64.5156
Q56.9844 54.8281 56.9844 36.375
Q56.9844 17.9688 50.5156 8.26562
Q44.0469 -1.42188 31.7812 -1.42188
Q19.5312 -1.42188 13.0625 8.26562
Q6.59375 17.9688 6.59375 36.375
Q6.59375 54.8281 13.0625 64.5156
Q19.5312 74.2188 31.7812 74.2188" id="BitstreamVeraSans-Roman-30"/>
      </defs>
      <g transform="translate(42.48046875 335.421875)scale(0.1 -0.1)">
       <use xlink:href="#BitstreamVeraSans-Roman-30"/>
      </g>
     </g>
    </g>
    <g id="xtick_2">
     <g id="line2d_6">
      <g>
       <use style="stroke:#000000;stroke-linecap:butt;stroke-width:0.5;" x="100.8" xlink:href="#mcb557df647" y="324.0"/>
      </g>
     </g>
     <g id="line2d_7">
      <g>
       <use style="stroke:#000000;stroke-linecap:butt;stroke-width:0.5;" x="100.8" xlink:href="#mdad270ee8e" y="36.0"/>
      </g>
     </g>
     <g id="text_2">
      <!-- 20 -->
      <defs>
       <path d="
M19.1875 8.29688
L53.6094 8.29688
L53.6094 0
L7.32812 0
L7.32812 8.29688
Q12.9375 14.1094 22.625 23.8906
Q32.3281 33.6875 34.8125 36.5312
Q39.5469 41.8438 41.4219 45.5312
Q43.3125 49.2188 43.3125 52.7812
Q43.3125 58.5938 39.2344 62.25
Q35.1562 65.9219 28.6094 65.9219
Q23.9688 65.9219 18.8125 64.3125
Q13.6719 62.7031 7.8125 59.4219
L7.8125 69.3906
Q13.7656 71.7812 18.9375 73
Q24.125 74.2188 28.4219 74.2188
Q39.75 74.2188 46.4844 68.5469
Q53.2188 62.8906 53.2188 53.4219
Q53.2188 48.9219 51.5312 44.8906
Q49.8594 40.875 45.4062 35.4062
Q44.1875 33.9844 37.6406 27.2188
Q31.1094 20.4531 19.1875 8.29688" id="BitstreamVeraSans-Roman-32"/>
      </defs>
      <g transform="translate(95.1359375 335.421875)scale(0.1 -0.1)">
       <use xlink:href="#BitstreamVeraSans-Roman-32"/>
       <use x="63.623046875" xlink:href="#BitstreamVeraSans-Roman-30"/>
      </g>
     </g>
    </g>
    <g id="xtick_3">
     <g id="line2d_8">
      <g>
       <use style="stroke:#000000;stroke-linecap:butt;stroke-width:0.5;" x="156.6" xlink:href="#mcb557df647" y="324.0"/>
      </g>
     </g>
     <g id="line2d_9">
      <g>
       <use style="stroke:#000000;stroke-linecap:butt;stroke-width:0.5;" x="156.6" xlink:href="#mdad270ee8e" y="36.0"/>
      </g>
     </g>
     <g id="text_3">
      <!-- 40 -->
      <defs>
       <path d="
M37.7969 64.3125
L12.8906 25.3906
L37.7969 25.3906
z

M35.2031 72.9062
L47.6094 72.9062
L47.6094 25.3906
L58.0156 25.3906
L58.0156 17.1875
L47.6094 17.1875
L47.6094 0
L37.7969 0
L37.7969 17.1875
L4.89062 17.1875
L4.89062 26.7031
z
" id="BitstreamVeraSans-Roman-34"/>
      </defs>
      <g transform="translate(150.8140625 335.421875)scale(0.1 -0.1)">
       <use xlink:href="#BitstreamVeraSans-Roman-34"/>
       <use x="63.623046875" xlink:href="#BitstreamVeraSans-Roman-30"/>
      </g>
     </g>
    </g>
    <g id="xtick_4">
     <g id="line2d_10">
      <g>
       <use style="stroke:#000000;stroke-linecap:butt;stroke-width:0.5;" x="212.4" xlink:href="#mcb557df647" y="324.0"/>
      </g>
     </g>
     <g id="line2d_11">
      <g>
       <use style="stroke:#000000;stroke-linecap:butt;stroke-width:0.5;" x="212.4" xlink:href="#mdad270ee8e" y="36.0"/>
      </g>
     </g>
     <g id="text_4">
      <!-- 60 -->
      <defs>
       <path d="
M33.0156 40.375
Q26.375 40.375 22.4844 35.8281
Q18.6094 31.2969 18.6094 23.3906
Q18.6094 15.5312 22.4844 10.9531
Q26.375 6.39062 33.0156 6.39062
Q39.6562 6.39062 43.5312 10.9531
Q47.4062 15.5312 47.4062 23.3906
Q47.4062 31.2969 43.5312 35.8281
Q39.6562 40.375 33.0156 40.375
M52.5938 71.2969
L52.5938 62.3125
Q48.875 64.0625 45.0938 64.9844
Q41.3125 65.9219 37.5938 65.9219
Q27.8281 65.9219 22.6719 59.3281
Q17.5312 52.7344 16.7969 39.4062
Q19.6719 43.6562 24.0156 45.9219
Q28.375 48.1875 33.5938 48.1875
Q44.5781 48.1875 50.9531 41.5156
Q57.3281 34.8594 57.3281 23.3906
Q57.3281 12.1562 50.6875 5.35938
Q44.0469 -1.42188 33.0156 -1.42188
Q20.3594 -1.42188 13.6719 8.26562
Q6.98438 17.9688 6.98438 36.375
Q6.98438 53.6562 15.1875 63.9375
Q23.3906 74.2188 37.2031 74.2188
Q40.9219 74.2188 44.7031 73.4844
Q48.4844 72.75 52.5938 71.2969" id="BitstreamVeraSans-Roman-36"/>
      </defs>
      <g transform="translate(206.71875 335.421875)scale(0.1 -0.1)">
       <use xlink:href="#BitstreamVeraSans-Roman-36"/>
       <use x="63.623046875" xlink:href="#BitstreamVeraSans-Roman-30"/>
      </g>
     </g>
    </g>
    <g id="xtick_5">
     <g id="line2d_12">
      <g>
       <use style="stroke:#000000;stroke-linecap:butt;stroke-width:0.5;" x="268.2" xlink:href="#mcb557df647" y="324.0"/>
      </g>
     </g>
     <g id="line2d_13">
      <g>
       <use style="stroke:#000000;stroke-linecap:butt;stroke-width:0.5;" x="268.2" xlink:href="#mdad270ee8e" y="36.0"/>
      </g>
     </g>
     <g id="text_5">
      <!-- 80 -->
      <defs>
       <path d="
M31.7812 34.625
Q24.75 34.625 20.7188 30.8594
Q16.7031 27.0938 16.7031 20.5156
Q16.7031 13.9219 20.7188 10.1562
Q24.75 6.39062 31.7812 6.39062
Q38.8125 6.39062 42.8594 10.1719
Q46.9219 13.9688 46.9219 20.5156
Q46.9219 27.0938 42.8906 30.8594
Q38.875 34.625 31.7812 34.625
M21.9219 38.8125
Q15.5781 40.375 12.0312 44.7188
Q8.5 49.0781 8.5 55.3281
Q8.5 64.0625 14.7188 69.1406
Q20.9531 74.2188 31.7812 74.2188
Q42.6719 74.2188 48.875 69.1406
Q55.0781 64.0625 55.0781 55.3281
Q55.0781 49.0781 51.5312 44.7188
Q48 40.375 41.7031 38.8125
Q48.8281 37.1562 52.7969 32.3125
Q56.7812 27.4844 56.7812 20.5156
Q56.7812 9.90625 50.3125 4.23438
Q43.8438 -1.42188 31.7812 -1.42188
Q19.7344 -1.42188 13.25 4.23438
Q6.78125 9.90625 6.78125 20.5156
Q6.78125 27.4844 10.7812 32.3125
Q14.7969 37.1562 21.9219 38.8125
M18.3125 54.3906
Q18.3125 48.7344 21.8438 45.5625
Q25.3906 42.3906 31.7812 42.3906
Q38.1406 42.3906 41.7188 45.5625
Q45.3125 48.7344 45.3125 54.3906
Q45.3125 60.0625 41.7188 63.2344
Q38.1406 66.4062 31.7812 66.4062
Q25.3906 66.4062 21.8438 63.2344
Q18.3125 60.0625 18.3125 54.3906" id="BitstreamVeraSans-Roman-38"/>
      </defs>
      <g transform="translate(262.50859375 335.421875)scale(0.1 -0.1)">
       <use xlink:href="#BitstreamVeraSans-Roman-38"/>
       <use x="63.623046875" xlink:href="#BitstreamVeraSans-Roman-30"/>
      </g>
     </g>
    </g>
    <g id="xtick_6">
     <g id="line2d_14">
      <g>
       <use style="stroke:#000000;stroke-linecap:butt;stroke-width:0.5;" x="324.0" xlink:href="#mcb557df647" y="324.0"/>
      </g>
     </g>
     <g id="line2d_15">
      <g>
       <use style="stroke:#000000;stroke-linecap:butt;stroke-width:0.5;" x="324.0" xlink:href="#mdad270ee8e" y="36.0"/>
      </g>
     </g>
     <g id="text_6">
      <!-- 100 -->
      <defs>
       <path d="
M12.4062 8.29688
L28.5156 8.29688
L28.5156 63.9219
L10.9844 60.4062
L10.9844 69.3906
L28.4219 72.9062
L38.2812 72.9062
L38.2812 8.29688
L54.3906 8.29688
L54.3906 0
L12.4062 0
z
" id="BitstreamVeraSans-Roman-31"/>
      </defs>
      <g transform="translate(315.3375 335.421875)scale(0.1 -0.1)">
       <use xlink:href="#BitstreamVeraSans-Roman-31"/>
       <use x="63.623046875" xlink:href="#BitstreamVeraSans-Roman-30"/>
       <use x="127.24609375" xlink:href="#BitstreamVeraSans-Roman-30"/>
      </g>
     </g>
    </g>
    <g id="text_7">
     <!-- time  $t$ (ps) -->
     <defs>
      <path id="BitstreamVeraSans-Roman-20"/>
      <path d="
M8.01562 75.875
L15.8281 75.875
Q23.1406 64.3594 26.7812 53.3125
Q30.4219 42.2812 30.4219 31.3906
Q30.4219 20.4531 26.7812 9.375
Q23.1406 -1.70312 15.8281 -13.1875
L8.01562 -13.1875
Q14.5 -2 17.7031 9.0625
Q20.9062 20.125 20.9062 31.3906
Q20.9062 42.6719 17.7031 53.6562
Q14.5 64.6562 8.01562 75.875" id="BitstreamVeraSans-Roman-29"/>
      <path d="
M52 44.1875
Q55.375 50.25 60.0625 53.125
Q64.75 56 71.0938 56
Q79.6406 56 84.2812 50.0156
Q88.9219 44.0469 88.9219 33.0156
L88.9219 0
L79.8906 0
L79.8906 32.7188
Q79.8906 40.5781 77.0938 44.375
Q74.3125 48.1875 68.6094 48.1875
Q61.625 48.1875 57.5625 43.5469
Q53.5156 38.9219 53.5156 30.9062
L53.5156 0
L44.4844 0
L44.4844 32.7188
Q44.4844 40.625 41.7031 44.4062
Q38.9219 48.1875 33.1094 48.1875
Q26.2188 48.1875 22.1562 43.5312
Q18.1094 38.875 18.1094 30.9062
L18.1094 0
L9.07812 0
L9.07812 54.6875
L18.1094 54.6875
L18.1094 46.1875
Q21.1875 51.2188 25.4844 53.6094
Q29.7812 56 35.6875 56
Q41.6562 56 45.8281 52.9688
Q50 49.9531 52 44.1875" id="BitstreamVeraSans-Roman-6d"/>
      <path d="
M9.42188 54.6875
L18.4062 54.6875
L18.4062 0
L9.42188 0
z

M9.42188 75.9844
L18.4062 75.9844
L18.4062 64.5938
L9.42188 64.5938
z
" id="BitstreamVeraSans-Roman-69"/>
      <path d="
M6.20312 8.10938
Q6.20312 9.57812 6.5 10.8906
L13.7188 39.5938
L3.21875 39.5938
Q2.20312 39.5938 2.20312 40.9219
Q2.59375 43.1094 3.51562 43.1094
L14.5938 43.1094
L18.6094 59.4219
Q19 60.75 20.1719 61.6719
Q21.3438 62.5938 22.7969 62.5938
Q24.0781 62.5938 24.9219 61.8281
Q25.7812 61.0781 25.7812 59.8125
Q25.7812 59.5156 25.75 59.3438
Q25.7344 59.1875 25.6875 58.9844
L21.6875 43.1094
L31.9844 43.1094
Q33.0156 43.1094 33.0156 41.7969
Q32.9531 41.5469 32.8125 40.9531
Q32.6719 40.375 32.4219 39.9844
Q32.1719 39.5938 31.6875 39.5938
L20.7969 39.5938
L13.625 10.6875
Q12.8906 7.85938 12.8906 5.8125
Q12.8906 1.51562 15.8281 1.51562
Q20.2188 1.51562 23.6094 5.64062
Q27 9.76562 28.8125 14.7031
Q29.2031 15.2812 29.5938 15.2812
L30.8125 15.2812
Q31.2031 15.2812 31.4375 15.0156
Q31.6875 14.75 31.6875 14.4062
Q31.6875 14.2031 31.5938 14.1094
Q29.3906 8.0625 25.1875 3.46875
Q21 -1.125 15.5781 -1.125
Q11.625 -1.125 8.90625 1.45312
Q6.20312 4.04688 6.20312 8.10938" id="Cmmi10-74"/>
      <path d="
M31 75.875
Q24.4688 64.6562 21.2812 53.6562
Q18.1094 42.6719 18.1094 31.3906
Q18.1094 20.125 21.3125 9.0625
Q24.5156 -2 31 -13.1875
L23.1875 -13.1875
Q15.875 -1.70312 12.2344 9.375
Q8.59375 20.4531 8.59375 31.3906
Q8.59375 42.2812 12.2031 53.3125
Q15.8281 64.3594 23.1875 75.875
z
" id="BitstreamVeraSans-Roman-28"/>
      <path d="
M56.2031 29.5938
L56.2031 25.2031
L14.8906 25.2031
Q15.4844 15.9219 20.4844 11.0625
Q25.4844 6.20312 34.4219 6.20312
Q39.5938 6.20312 44.4531 7.46875
Q49.3125 8.73438 54.1094 11.2812
L54.1094 2.78125
Q49.2656 0.734375 44.1875 -0.34375
Q39.1094 -1.42188 33.8906 -1.42188
Q20.7969 -1.42188 13.1562 6.1875
Q5.51562 13.8125 5.51562 26.8125
Q5.51562 40.2344 12.7656 48.1094
Q20.0156 56 32.3281 56
Q43.3594 56 49.7812 48.8906
Q56.2031 41.7969 56.2031 29.5938
M47.2188 32.2344
Q47.125 39.5938 43.0938 43.9844
Q39.0625 48.3906 32.4219 48.3906
Q24.9062 48.3906 20.3906 44.1406
Q15.875 39.8906 15.1875 32.1719
z
" id="BitstreamVeraSans-Roman-65"/>
      <path d="
M18.3125 70.2188
L18.3125 54.6875
L36.8125 54.6875
L36.8125 47.7031
L18.3125 47.7031
L18.3125 18.0156
Q18.3125 11.3281 20.1406 9.42188
Q21.9688 7.51562 27.5938 7.51562
L36.8125 7.51562
L36.8125 0
L27.5938 0
Q17.1875 0 13.2344 3.875
Q9.28125 7.76562 9.28125 18.0156
L9.28125 47.7031
L2.6875 47.7031
L2.6875 54.6875
L9.28125 54.6875
L9.28125 70.2188
z
" id="BitstreamVeraSans-Roman-74"/>
      <path d="
M44.2812 53.0781
L44.2812 44.5781
Q40.4844 46.5312 36.375 47.5
Q32.2812 48.4844 27.875 48.4844
Q21.1875 48.4844 17.8438 46.4375
Q14.5 44.3906 14.5 40.2812
Q14.5 37.1562 16.8906 35.375
Q19.2812 33.5938 26.5156 31.9844
L29.5938 31.2969
Q39.1562 29.25 43.1875 25.5156
Q47.2188 21.7812 47.2188 15.0938
Q47.2188 7.46875 41.1875 3.01562
Q35.1562 -1.42188 24.6094 -1.42188
Q20.2188 -1.42188 15.4531 -0.5625
Q10.6875 0.296875 5.42188 2
L5.42188 11.2812
Q10.4062 8.6875 15.2344 7.39062
Q20.0625 6.10938 24.8125 6.10938
Q31.1562 6.10938 34.5625 8.28125
Q37.9844 10.4531 37.9844 14.4062
Q37.9844 18.0625 35.5156 20.0156
Q33.0625 21.9688 24.7031 23.7812
L21.5781 24.5156
Q13.2344 26.2656 9.51562 29.9062
Q5.8125 33.5469 5.8125 39.8906
Q5.8125 47.6094 11.2812 51.7969
Q16.75 56 26.8125 56
Q31.7812 56 36.1719 55.2656
Q40.5781 54.5469 44.2812 53.0781" id="BitstreamVeraSans-Roman-73"/>
      <path d="
M18.1094 8.20312
L18.1094 -20.7969
L9.07812 -20.7969
L9.07812 54.6875
L18.1094 54.6875
L18.1094 46.3906
Q20.9531 51.2656 25.2656 53.625
Q29.5938 56 35.5938 56
Q45.5625 56 51.7812 48.0938
Q58.0156 40.1875 58.0156 27.2969
Q58.0156 14.4062 51.7812 6.48438
Q45.5625 -1.42188 35.5938 -1.42188
Q29.5938 -1.42188 25.2656 0.953125
Q20.9531 3.32812 18.1094 8.20312
M48.6875 27.2969
Q48.6875 37.2031 44.6094 42.8438
Q40.5312 48.4844 33.4062 48.4844
Q26.2656 48.4844 22.1875 42.8438
Q18.1094 37.2031 18.1094 27.2969
Q18.1094 17.3906 22.1875 11.75
Q26.2656 6.10938 33.4062 6.10938
Q40.5312 6.10938 44.6094 11.75
Q48.6875 17.3906 48.6875 27.2969" id="BitstreamVeraSans-Roman-70"/>
     </defs>
     <g transform="translate(156.95 350.2640625)scale(0.1 -0.1)">
      <use transform="translate(0.0 21.015625)" xlink:href="#BitstreamVeraSans-Roman-74"/>
      <use transform="translate(39.208984375 21.015625)" xlink:href="#BitstreamVeraSans-Roman-69"/>
      <use transform="translate(66.9921875 21.015625)" xlink:href="#BitstreamVeraSans-Roman-6d"/>
      <use transform="translate(164.404296875 21.015625)" xlink:href="#BitstreamVeraSans-Roman-65"/>
      <use transform="translate(225.927734375 21.015625)" xlink:href="#BitstreamVeraSans-Roman-20"/>
      <use transform="translate(257.71484375 21.015625)" xlink:href="#BitstreamVeraSans-Roman-20"/>
      <use transform="translate(289.501953125 21.015625)" xlink:href="#Cmmi10-74"/>
      <use transform="translate(325.5859375 21.015625)" xlink:href="#BitstreamVeraSans-Roman-20"/>
      <use transform="translate(357.373046875 21.015625)" xlink:href="#BitstreamVeraSans-Roman-28"/>
      <use transform="translate(396.38671875 21.015625)" xlink:href="#BitstreamVeraSans-Roman-70"/>
      <use transform="translate(459.86328125 21.015625)" xlink:href="#BitstreamVeraSans-Roman-73"/>
      <use transform="translate(511.962890625 21.015625)" xlink:href="#BitstreamVeraSans-Roman-29"/>
     </g>
    </g>
   </g>
   <g id="matplotlib.axis_2">
    <g id="ytick_1">
     <g id="line2d_16">
      <defs>
       <path d="
M0 0
L4 0" id="mc8fcea1516" style="stroke:#000000;stroke-linecap:butt;stroke-width:0.5;"/>
      </defs>
      <g>
       <use style="stroke:#000000;stroke-linecap:butt;stroke-width:0.5;" x="45.0" xlink:href="#mc8fcea1516" y="324.0"/>
      </g>
     </g>
     <g id="line2d_17">
      <defs>
       <path d="
M0 0
L-4 0" id="m0d5b0a6425" style="stroke:#000000;stroke-linecap:butt;stroke-width:0.5;"/>
      </defs>
      <g>
       <use style="stroke:#000000;stroke-linecap:butt;stroke-width:0.5;" x="324.0" xlink:href="#m0d5b0a6425" y="324.0"/>
      </g>
     </g>
     <g id="text_8">
      <!-- 0.0 -->
      <defs>
       <path d="
M10.6875 12.4062
L21 12.4062
L21 0
L10.6875 0
z
" id="BitstreamVeraSans-Roman-2e"/>
      </defs>
      <g transform="translate(26.4203125 327.63984375)scale(0.1 -0.1)">
       <use xlink:href="#BitstreamVeraSans-Roman-30"/>
       <use x="63.623046875" xlink:href="#BitstreamVeraSans-Roman-2e"/>
       <use x="95.41015625" xlink:href="#BitstreamVeraSans-Roman-30"/>
      </g>
     </g>
    </g>
    <g id="ytick_2">
     <g id="line2d_18">
      <g>
       <use style="stroke:#000000;stroke-linecap:butt;stroke-width:0.5;" x="45.0" xlink:href="#mc8fcea1516" y="252.0"/>
      </g>
     </g>
     <g id="line2d_19">
      <g>
       <use style="stroke:#000000;stroke-linecap:butt;stroke-width:0.5;" x="324.0" xlink:href="#m0d5b0a6425" y="252.0"/>
      </g>
     </g>
     <g id="text_9">
      <!-- 0.5 -->
      <defs>
       <path d="
M10.7969 72.9062
L49.5156 72.9062
L49.5156 64.5938
L19.8281 64.5938
L19.8281 46.7344
Q21.9688 47.4688 24.1094 47.8281
Q26.2656 48.1875 28.4219 48.1875
Q40.625 48.1875 47.75 41.5
Q54.8906 34.8125 54.8906 23.3906
Q54.8906 11.625 47.5625 5.09375
Q40.2344 -1.42188 26.9062 -1.42188
Q22.3125 -1.42188 17.5469 -0.640625
Q12.7969 0.140625 7.71875 1.70312
L7.71875 11.625
Q12.1094 9.23438 16.7969 8.0625
Q21.4844 6.89062 26.7031 6.89062
Q35.1562 6.89062 40.0781 11.3281
Q45.0156 15.7656 45.0156 23.3906
Q45.0156 31 40.0781 35.4375
Q35.1562 39.8906 26.7031 39.8906
Q22.75 39.8906 18.8125 39.0156
Q14.8906 38.1406 10.7969 36.2812
z
" id="BitstreamVeraSans-Roman-35"/>
      </defs>
      <g transform="translate(26.6296875 255.63984375)scale(0.1 -0.1)">
       <use xlink:href="#BitstreamVeraSans-Roman-30"/>
       <use x="63.623046875" xlink:href="#BitstreamVeraSans-Roman-2e"/>
       <use x="95.41015625" xlink:href="#BitstreamVeraSans-Roman-35"/>
      </g>
     </g>
    </g>
    <g id="ytick_3">
     <g id="line2d_20">
      <g>
       <use style="stroke:#000000;stroke-linecap:butt;stroke-width:0.5;" x="45.0" xlink:href="#mc8fcea1516" y="180.0"/>
      </g>
     </g>
     <g id="line2d_21">
      <g>
       <use style="stroke:#000000;stroke-linecap:butt;stroke-width:0.5;" x="324.0" xlink:href="#m0d5b0a6425" y="180.0"/>
      </g>
     </g>
     <g id="text_10">
      <!-- 1.0 -->
      <g transform="translate(26.859375 183.63984375)scale(0.1 -0.1)">
       <use xlink:href="#BitstreamVeraSans-Roman-31"/>
       <use x="63.623046875" xlink:href="#BitstreamVeraSans-Roman-2e"/>
       <use x="95.41015625" xlink:href="#BitstreamVeraSans-Roman-30"/>
      </g>
     </g>
    </g>
    <g id="ytick_4">
     <g id="line2d_22">
      <g>
       <use style="stroke:#000000;stroke-linecap:butt;stroke-width:0.5;" x="45.0" xlink:href="#mc8fcea1516" y="108.0"/>
      </g>
     </g>
     <g id="line2d_23">
      <g>
       <use style="stroke:#000000;stroke-linecap:butt;stroke-width:0.5;" x="324.0" xlink:href="#m0d5b0a6425" y="108.0"/>
      </g>
     </g>
     <g id="text_11">
      <!-- 1.5 -->
      <g transform="translate(27.06875 111.57421875)scale(0.1 -0.1)">
       <use xlink:href="#BitstreamVeraSans-Roman-31"/>
       <use x="63.623046875" xlink:href="#BitstreamVeraSans-Roman-2e"/>
       <use x="95.41015625" xlink:href="#BitstreamVeraSans-Roman-35"/>
      </g>
     </g>
    </g>
    <g id="ytick_5">
     <g id="line2d_24">
      <g>
       <use style="stroke:#000000;stroke-linecap:butt;stroke-width:0.5;" x="45.0" xlink:href="#mc8fcea1516" y="36.0"/>
      </g>
     </g>
     <g id="line2d_25">
      <g>
       <use style="stroke:#000000;stroke-linecap:butt;stroke-width:0.5;" x="324.0" xlink:href="#m0d5b0a6425" y="36.0"/>
      </g>
     </g>
     <g id="text_12">
      <!-- 2.0 -->
      <g transform="translate(26.49375 39.63984375)scale(0.1 -0.1)">
       <use xlink:href="#BitstreamVeraSans-Roman-32"/>
       <use x="63.623046875" xlink:href="#BitstreamVeraSans-Roman-2e"/>
       <use x="95.41015625" xlink:href="#BitstreamVeraSans-Roman-30"/>
      </g>
     </g>
    </g>
    <g id="text_13">
     <!-- C$_\alpha$ RMSD from $t=0$, $\rho_{\mathrm{C}_\alpha}$ ($\AA$) -->
     <defs>
      <path d="
M20.125 -1.125
Q15.375 -1.125 11.6875 1.125
Q8.01562 3.375 6 7.17188
Q4 10.9844 4 15.8281
Q4 22.6094 7.78125 29.25
Q11.5781 35.8906 17.8438 40.0312
Q24.125 44.1875 31 44.1875
Q36.0781 44.1875 39.9375 41.5312
Q43.7969 38.875 45.7969 34.4531
Q47.7969 30.0312 47.7969 25
L47.9062 18.3125
Q51.3125 23.0469 53.6875 28.1406
Q56.0625 33.25 57.3281 38.7188
Q57.5156 39.3125 58.1094 39.3125
L59.2812 39.3125
Q60.2031 39.3125 60.2031 38.375
Q60.2031 38.2812 60.1094 38.0938
Q58.9375 33.5 57.1719 29.2656
Q55.4219 25.0469 53.0469 21.0938
Q50.6875 17.1406 47.9062 13.9219
Q47.9062 1.51562 50.7812 1.51562
Q52.6406 1.51562 53.8281 2.60938
Q55.0312 3.71875 55.9375 5.32812
Q56.8438 6.9375 57.0781 6.98438
L58.2969 6.98438
Q59.0781 6.98438 59.0781 6
Q59.0781 3.51562 56.2188 1.1875
Q53.375 -1.125 50.5938 -1.125
Q46.9688 -1.125 44.5781 1.21875
Q42.1875 3.5625 41.3125 7.32812
Q36.625 3.32812 31.1562 1.09375
Q25.6875 -1.125 20.125 -1.125
M20.3125 1.51562
Q31 1.51562 40.8281 10.2969
Q40.7656 10.8906 40.6719 11.7344
Q40.5781 12.5938 40.5781 12.7031
L40.5781 23.4844
Q40.5781 41.6094 30.8125 41.6094
Q24.9531 41.6094 20.5469 36.5938
Q16.1562 31.5938 13.9375 24.625
Q11.7188 17.6719 11.7188 11.9219
Q11.7188 7.5625 13.9375 4.53125
Q16.1562 1.51562 20.3125 1.51562" id="Cmmi10-ae"/>
      <path d="
M9.8125 72.9062
L24.5156 72.9062
L43.1094 23.2969
L61.8125 72.9062
L76.5156 72.9062
L76.5156 0
L66.8906 0
L66.8906 64.0156
L48.0938 14.0156
L38.1875 14.0156
L19.3906 64.0156
L19.3906 0
L9.8125 0
z
" id="BitstreamVeraSans-Roman-4d"/>
      <path d="
M25 -2.20312
Q12.75 -2.20312 8.32812 7.875
Q3.90625 17.9688 3.90625 31.8906
Q3.90625 40.5781 5.48438 48.2344
Q7.07812 55.9062 11.7812 61.25
Q16.5 66.6094 25 66.6094
Q31.5938 66.6094 35.7812 63.375
Q39.9844 60.1562 42.1875 55.0469
Q44.3906 49.9531 45.1875 44.1094
Q46 38.2812 46 31.8906
Q46 23.2969 44.4062 15.7969
Q42.8281 8.29688 38.1875 3.04688
Q33.5469 -2.20312 25 -2.20312
M25 0.390625
Q30.5625 0.390625 33.2969 6.09375
Q36.0312 11.8125 36.6719 18.75
Q37.3125 25.6875 37.3125 33.5
Q37.3125 41.0156 36.6719 47.3594
Q36.0312 53.7188 33.3125 58.8594
Q30.6094 64.0156 25 64.0156
Q19.3438 64.0156 16.6094 58.8281
Q13.875 53.6562 13.2344 47.3281
Q12.5938 41.0156 12.5938 33.5
Q12.5938 27.9375 12.8594 23
Q13.1406 18.0625 14.3125 12.8125
Q15.4844 7.5625 18.0938 3.96875
Q20.7031 0.390625 25 0.390625" id="Cmr10-30"/>
      <path d="
M14.0938 18.5938
L34.5938 67.2969
Q30.9062 67.7031 28.4531 70.5
Q26 73.2969 26 77.2031
Q26 81.2969 28.9531 84.1875
Q31.9062 87.0938 36.0938 87.0938
Q40.0938 87.0938 43 84.1406
Q45.9062 81.2031 45.9062 77.0938
Q45.9062 73.2031 43.2969 70.3906
Q40.7031 67.5938 36.7969 67.2031
L61.2969 11.0938
Q63.5 5.90625 65.25 4.09375
Q67 2.29688 70.7031 1.90625
L70.7031 0
L45.2031 0
L45.2031 1.90625
Q49.2031 1.90625 50.7031 2.79688
Q52.0938 3.5 52.0938 5.20312
Q52.0938 7.79688 50.2031 12.2031
L46.0938 21.5938
L19.9062 21.5938
L15.2969 10.2031
Q14.4062 7.90625 14.4062 6
Q14.4062 3.70312 16.0469 2.79688
Q17.7031 1.90625 21.4062 1.90625
L21.4062 0
L1.5 0
L1.5 1.90625
Q5.70312 2.29688 7.59375 4.9375
Q9.5 7.59375 14.0938 18.5938
M42.5 77.2031
Q42.5 79.9062 40.5469 81.7969
Q38.5938 83.7031 35.7969 83.7031
Q33.2031 83.7031 31.2969 81.75
Q29.4062 79.7969 29.4062 77.2031
Q29.4062 74.4062 31.2969 72.5
Q33.2031 70.5938 35.7969 70.5938
Q38.5938 70.5938 40.5469 72.5
Q42.5 74.4062 42.5 77.2031
M44.7031 25.7031
L33.0938 53.2031
L21.5938 25.7031
z
" id="STIXGeneral-Regular-212b"/>
      <path d="
M2.78125 -18.7969
Q2.78125 -18.2188 2.875 -18.0156
L12.7969 21.9219
Q14.2031 27.2969 17.6406 32.4375
Q21.0938 37.5938 25.9688 40.8906
Q30.8594 44.1875 36.2812 44.1875
Q40.625 44.1875 43.875 41.9219
Q47.125 39.6562 48.75 35.9688
Q50.3906 32.2812 50.3906 27.875
Q50.3906 23.0469 48.4062 17.875
Q46.4375 12.7031 42.9375 8.40625
Q39.4531 4.10938 34.9062 1.48438
Q30.375 -1.125 25.3906 -1.125
Q22.4688 -1.125 19.875 0.609375
Q17.2812 2.34375 15.8281 5.17188
L9.90625 -18.4062
Q9.625 -19.8281 8.45312 -20.7031
Q7.28125 -21.5781 5.8125 -21.5781
Q4.59375 -21.5781 3.6875 -20.8125
Q2.78125 -20.0625 2.78125 -18.7969
M25.5938 1.51562
Q30.9062 1.51562 34.8281 6.95312
Q38.7656 12.4062 40.8438 19.75
Q42.9219 27.0938 42.9219 32.1719
Q42.9219 35.9844 41.25 38.7969
Q39.5938 41.6094 36.0781 41.6094
Q31.7344 41.6094 28.4062 38.3125
Q25.0938 35.0156 23.0938 30.5625
Q21.0938 26.125 19.8281 21.2969
L17.0938 10.1094
Q17.7188 6.5 19.9375 4
Q22.1719 1.51562 25.5938 1.51562" id="Cmmi10-bd"/>
      <path d="
M30.6094 48.3906
Q23.3906 48.3906 19.1875 42.75
Q14.9844 37.1094 14.9844 27.2969
Q14.9844 17.4844 19.1562 11.8438
Q23.3438 6.20312 30.6094 6.20312
Q37.7969 6.20312 41.9844 11.8594
Q46.1875 17.5312 46.1875 27.2969
Q46.1875 37.0156 41.9844 42.7031
Q37.7969 48.3906 30.6094 48.3906
M30.6094 56
Q42.3281 56 49.0156 48.375
Q55.7188 40.7656 55.7188 27.2969
Q55.7188 13.875 49.0156 6.21875
Q42.3281 -1.42188 30.6094 -1.42188
Q18.8438 -1.42188 12.1719 6.21875
Q5.51562 13.875 5.51562 27.2969
Q5.51562 40.7656 12.1719 48.375
Q18.8438 56 30.6094 56" id="BitstreamVeraSans-Roman-6f"/>
      <path d="
M11.7188 12.4062
L22.0156 12.4062
L22.0156 4
L14.0156 -11.625
L7.71875 -11.625
L11.7188 4
z
" id="BitstreamVeraSans-Roman-2c"/>
      <path d="
M22.7969 10.6875
Q26.2188 6.34375 31.3438 3.82812
Q36.4688 1.3125 42 1.3125
Q46.625 1.3125 50.5781 3.14062
Q54.5469 4.98438 57.5 8.25
Q60.4531 11.5312 62.0312 15.6719
Q63.625 19.8281 63.625 24.4219
Q63.625 25.2031 64.5 25.2031
L65.7188 25.2031
Q66.5 25.2031 66.5 24.2188
Q66.5 19 64.5 14.1406
Q62.5 9.28125 58.8281 5.59375
Q55.1719 1.90625 50.4062 -0.140625
Q45.6562 -2.20312 40.4844 -2.20312
Q33.2969 -2.20312 26.875 0.703125
Q20.4531 3.60938 15.6875 8.65625
Q10.9375 13.7188 8.26562 20.3594
Q5.60938 27 5.60938 34.1875
Q5.60938 41.3594 8.26562 48
Q10.9375 54.6406 15.6875 59.7188
Q20.4531 64.7969 26.875 67.6562
Q33.2969 70.5156 40.4844 70.5156
Q45.6094 70.5156 50.2969 68.2812
Q54.9844 66.0625 58.5 62.0156
L64.3125 70.2188
Q64.8906 70.5156 64.9844 70.5156
L65.7188 70.5156
Q66.0156 70.5156 66.25 70.2656
Q66.5 70.0156 66.5 69.6719
L66.5 42.6719
Q66.5 41.7969 65.7188 41.7969
L63.9219 41.7969
Q62.9844 41.7969 62.9844 42.6719
Q62.9844 45.5625 61.8281 49.125
Q60.6875 52.6875 58.9062 55.875
Q57.125 59.0781 54.7812 61.5312
Q49.1719 67 41.8906 67
Q36.375 67 31.3125 64.5
Q26.2656 62.0156 22.7969 57.625
Q19.1406 52.9375 17.7188 46.9531
Q16.3125 40.9688 16.3125 34.1875
Q16.3125 27.3906 17.7188 21.375
Q19.1406 15.375 22.7969 10.6875" id="Cmr10-43"/>
      <path d="
M44.3906 34.1875
Q47.5625 33.1094 50.5625 29.5938
Q53.5625 26.0781 56.5938 19.9219
L66.6094 0
L56 0
L46.6875 18.7031
Q43.0625 26.0312 39.6719 28.4219
Q36.2812 30.8125 30.4219 30.8125
L19.6719 30.8125
L19.6719 0
L9.8125 0
L9.8125 72.9062
L32.0781 72.9062
Q44.5781 72.9062 50.7344 67.6719
Q56.8906 62.4531 56.8906 51.9062
Q56.8906 45.0156 53.6875 40.4688
Q50.4844 35.9375 44.3906 34.1875
M19.6719 64.7969
L19.6719 38.9219
L32.0781 38.9219
Q39.2031 38.9219 42.8438 42.2188
Q46.4844 45.5156 46.4844 51.9062
Q46.4844 58.2969 42.8438 61.5469
Q39.2031 64.7969 32.0781 64.7969
z
" id="BitstreamVeraSans-Roman-52"/>
      <path d="
M19.6719 64.7969
L19.6719 8.10938
L31.5938 8.10938
Q46.6875 8.10938 53.6875 14.9375
Q60.6875 21.7812 60.6875 36.5312
Q60.6875 51.1719 53.6875 57.9844
Q46.6875 64.7969 31.5938 64.7969
z

M9.8125 72.9062
L30.0781 72.9062
Q51.2656 72.9062 61.1719 64.0938
Q71.0938 55.2812 71.0938 36.5312
Q71.0938 17.6719 61.125 8.82812
Q51.1719 0 30.0781 0
L9.8125 0
z
" id="BitstreamVeraSans-Roman-44"/>
      <path d="
M64.4062 67.2812
L64.4062 56.8906
Q59.4219 61.5312 53.7812 63.8125
Q48.1406 66.1094 41.7969 66.1094
Q29.2969 66.1094 22.6562 58.4688
Q16.0156 50.8281 16.0156 36.375
Q16.0156 21.9688 22.6562 14.3281
Q29.2969 6.6875 41.7969 6.6875
Q48.1406 6.6875 53.7812 8.98438
Q59.4219 11.2812 64.4062 15.9219
L64.4062 5.60938
Q59.2344 2.09375 53.4375 0.328125
Q47.6562 -1.42188 41.2188 -1.42188
Q24.6562 -1.42188 15.125 8.70312
Q5.60938 18.8438 5.60938 36.375
Q5.60938 53.9531 15.125 64.0781
Q24.6562 74.2188 41.2188 74.2188
Q47.75 74.2188 53.5312 72.4844
Q59.3281 70.75 64.4062 67.2812" id="BitstreamVeraSans-Roman-43"/>
      <path d="
M7.51562 13.2812
Q6.6875 13.2812 6.14062 13.9062
Q5.60938 14.5469 5.60938 15.2812
Q5.60938 16.1094 6.14062 16.6875
Q6.6875 17.2812 7.51562 17.2812
L70.3125 17.2812
Q71.0469 17.2812 71.5781 16.6875
Q72.125 16.1094 72.125 15.2812
Q72.125 14.5469 71.5781 13.9062
Q71.0469 13.2812 70.3125 13.2812
z

M7.51562 32.7188
Q6.6875 32.7188 6.14062 33.2969
Q5.60938 33.8906 5.60938 34.7188
Q5.60938 35.4531 6.14062 36.0781
Q6.6875 36.7188 7.51562 36.7188
L70.3125 36.7188
Q71.0469 36.7188 71.5781 36.0781
Q72.125 35.4531 72.125 34.7188
Q72.125 33.8906 71.5781 33.2969
Q71.0469 32.7188 70.3125 32.7188
z
" id="Cmr10-3d"/>
      <path d="
M37.1094 75.9844
L37.1094 68.5
L28.5156 68.5
Q23.6875 68.5 21.7969 66.5469
Q19.9219 64.5938 19.9219 59.5156
L19.9219 54.6875
L34.7188 54.6875
L34.7188 47.7031
L19.9219 47.7031
L19.9219 0
L10.8906 0
L10.8906 47.7031
L2.29688 47.7031
L2.29688 54.6875
L10.8906 54.6875
L10.8906 58.5
Q10.8906 67.625 15.1406 71.7969
Q19.3906 75.9844 28.6094 75.9844
z
" id="BitstreamVeraSans-Roman-66"/>
      <path d="
M41.1094 46.2969
Q39.5938 47.1719 37.8125 47.5781
Q36.0312 48 33.8906 48
Q26.2656 48 22.1875 43.0469
Q18.1094 38.0938 18.1094 28.8125
L18.1094 0
L9.07812 0
L9.07812 54.6875
L18.1094 54.6875
L18.1094 46.1875
Q20.9531 51.1719 25.4844 53.5781
Q30.0312 56 36.5312 56
Q37.4531 56 38.5781 55.875
Q39.7031 55.7656 41.0625 55.5156
z
" id="BitstreamVeraSans-Roman-72"/>
      <path d="
M53.5156 70.5156
L53.5156 60.8906
Q47.9062 63.5781 42.9219 64.8906
Q37.9375 66.2188 33.2969 66.2188
Q25.25 66.2188 20.875 63.0938
Q16.5 59.9688 16.5 54.2031
Q16.5 49.3594 19.4062 46.8906
Q22.3125 44.4375 30.4219 42.9219
L36.375 41.7031
Q47.4062 39.5938 52.6562 34.2969
Q57.9062 29 57.9062 20.125
Q57.9062 9.51562 50.7969 4.04688
Q43.7031 -1.42188 29.9844 -1.42188
Q24.8125 -1.42188 18.9688 -0.25
Q13.1406 0.921875 6.89062 3.21875
L6.89062 13.375
Q12.8906 10.0156 18.6562 8.29688
Q24.4219 6.59375 29.9844 6.59375
Q38.4219 6.59375 43.0156 9.90625
Q47.6094 13.2344 47.6094 19.3906
Q47.6094 24.75 44.3125 27.7812
Q41.0156 30.8125 33.5 32.3281
L27.4844 33.5
Q16.4531 35.6875 11.5156 40.375
Q6.59375 45.0625 6.59375 53.4219
Q6.59375 63.0938 13.4062 68.6562
Q20.2188 74.2188 32.1719 74.2188
Q37.3125 74.2188 42.625 73.2812
Q47.9531 72.3594 53.5156 70.5156" id="BitstreamVeraSans-Roman-53"/>
     </defs>
     <g transform="translate(21.4203125 247.05)rotate(-90.0)scale(0.1 -0.1)">
      <use transform="translate(0.0 44.90625)" xlink:href="#BitstreamVeraSans-Roman-43"/>
      <use transform="translate(69.82421875 19.396875)scale(0.7)" xlink:href="#Cmmi10-ae"/>
      <use transform="translate(133.740234375 44.90625)" xlink:href="#BitstreamVeraSans-Roman-20"/>
      <use transform="translate(165.52734375 44.90625)" xlink:href="#BitstreamVeraSans-Roman-52"/>
      <use transform="translate(235.009765625 44.90625)" xlink:href="#BitstreamVeraSans-Roman-4d"/>
      <use transform="translate(321.2890625 44.90625)" xlink:href="#BitstreamVeraSans-Roman-53"/>
      <use transform="translate(384.765625 44.90625)" xlink:href="#BitstreamVeraSans-Roman-44"/>
      <use transform="translate(461.767578125 44.90625)" xlink:href="#BitstreamVeraSans-Roman-20"/>
      <use transform="translate(493.5546875 44.90625)" xlink:href="#BitstreamVeraSans-Roman-66"/>
      <use transform="translate(528.759765625 44.90625)" xlink:href="#BitstreamVeraSans-Roman-72"/>
      <use transform="translate(569.873046875 44.90625)" xlink:href="#BitstreamVeraSans-Roman-6f"/>
      <use transform="translate(631.0546875 44.90625)" xlink:href="#BitstreamVeraSans-Roman-6d"/>
      <use transform="translate(728.466796875 44.90625)" xlink:href="#BitstreamVeraSans-Roman-20"/>
      <use transform="translate(760.25390625 44.90625)" xlink:href="#Cmmi10-74"/>
      <use transform="translate(813.896484375 44.90625)" xlink:href="#Cmr10-3d"/>
      <use transform="translate(897.955078125 44.90625)" xlink:href="#Cmr10-30"/>
      <use transform="translate(947.955078125 44.90625)" xlink:href="#BitstreamVeraSans-Roman-2c"/>
      <use transform="translate(979.7421875 44.90625)" xlink:href="#BitstreamVeraSans-Roman-20"/>
      <use transform="translate(1011.52929688 44.90625)" xlink:href="#Cmmi10-bd"/>
      <use transform="translate(1063.23828125 19.396875)scale(0.7)" xlink:href="#Cmr10-43"/>
      <use transform="translate(1113.79003906 1.5403125)scale(0.49)" xlink:href="#Cmmi10-ae"/>
      <use transform="translate(1158.53125 44.90625)" xlink:href="#BitstreamVeraSans-Roman-20"/>
      <use transform="translate(1190.31835938 44.90625)" xlink:href="#BitstreamVeraSans-Roman-28"/>
      <use transform="translate(1229.33203125 44.90625)" xlink:href="#STIXGeneral-Regular-212b"/>
      <use transform="translate(1301.53201294 44.90625)" xlink:href="#BitstreamVeraSans-Roman-29"/>
     </g>
    </g>
   </g>
   <g id="patch_3">
    <path d="
M45 36
L324 36" style="fill:none;stroke:#000000;"/>
   </g>
   <g id="patch_4">
    <path d="
M324 324
L324 36" style="fill:none;stroke:#000000;"/>
   </g>
   <g id="patch_5">
    <path d="
M45 324
L324 324" style="fill:none;stroke:#000000;"/>
   </g>
   <g id="patch_6">
    <path d="
M45 324
L45 36" style="fill:none;stroke:#000000;"/>
   </g>
   <g id="legend_1">
    <g id="patch_7">
     <path d="
M242.496 318
L318 318
L318 264.054
L242.496 264.054
L242.496 318
z
" style="fill:#ffffff;stroke:#000000;"/>
    </g>
    <g id="line2d_26">
     <path d="
M250.896 273.772
L267.696 273.772" style="fill:none;stroke:#000000;stroke-width:2;"/>
    </g>
    <g id="line2d_27"/>
    <g id="text_14">
     <!-- CORE -->
     <defs>
      <path d="
M39.4062 66.2188
Q28.6562 66.2188 22.3281 58.2031
Q16.0156 50.2031 16.0156 36.375
Q16.0156 22.6094 22.3281 14.5938
Q28.6562 6.59375 39.4062 6.59375
Q50.1406 6.59375 56.4219 14.5938
Q62.7031 22.6094 62.7031 36.375
Q62.7031 50.2031 56.4219 58.2031
Q50.1406 66.2188 39.4062 66.2188
M39.4062 74.2188
Q54.7344 74.2188 63.9062 63.9375
Q73.0938 53.6562 73.0938 36.375
Q73.0938 19.1406 63.9062 8.85938
Q54.7344 -1.42188 39.4062 -1.42188
Q24.0312 -1.42188 14.8125 8.82812
Q5.60938 19.0938 5.60938 36.375
Q5.60938 53.6562 14.8125 63.9375
Q24.0312 74.2188 39.4062 74.2188" id="BitstreamVeraSans-Roman-4f"/>
      <path d="
M9.8125 72.9062
L55.9062 72.9062
L55.9062 64.5938
L19.6719 64.5938
L19.6719 43.0156
L54.3906 43.0156
L54.3906 34.7188
L19.6719 34.7188
L19.6719 8.29688
L56.7812 8.29688
L56.7812 0
L9.8125 0
z
" id="BitstreamVeraSans-Roman-45"/>
     </defs>
     <g transform="translate(280.895625 277.9725)scale(0.12 -0.12)">
      <use xlink:href="#BitstreamVeraSans-Roman-43"/>
      <use x="69.82421875" xlink:href="#BitstreamVeraSans-Roman-4f"/>
      <use x="148.53515625" xlink:href="#BitstreamVeraSans-Roman-52"/>
      <use x="218.017578125" xlink:href="#BitstreamVeraSans-Roman-45"/>
     </g>
    </g>
    <g id="line2d_28">
     <path d="
M250.896 291.386
L267.696 291.386" style="fill:none;stroke:#0000ff;stroke-width:2;"/>
    </g>
    <g id="line2d_29"/>
    <g id="text_15">
     <!-- NMP -->
     <defs>
      <path d="
M19.6719 64.7969
L19.6719 37.4062
L32.0781 37.4062
Q38.9688 37.4062 42.7188 40.9688
Q46.4844 44.5312 46.4844 51.125
Q46.4844 57.6719 42.7188 61.2344
Q38.9688 64.7969 32.0781 64.7969
z

M9.8125 72.9062
L32.0781 72.9062
Q44.3438 72.9062 50.6094 67.3594
Q56.8906 61.8125 56.8906 51.125
Q56.8906 40.3281 50.6094 34.8125
Q44.3438 29.2969 32.0781 29.2969
L19.6719 29.2969
L19.6719 0
L9.8125 0
z
" id="BitstreamVeraSans-Roman-50"/>
      <path d="
M9.8125 72.9062
L23.0938 72.9062
L55.4219 11.9219
L55.4219 72.9062
L64.9844 72.9062
L64.9844 0
L51.7031 0
L19.3906 60.9844
L19.3906 0
L9.8125 0
z
" id="BitstreamVeraSans-Roman-4e"/>
     </defs>
     <g transform="translate(280.895625 295.58625)scale(0.12 -0.12)">
      <use xlink:href="#BitstreamVeraSans-Roman-4e"/>
      <use x="74.8046875" xlink:href="#BitstreamVeraSans-Roman-4d"/>
      <use x="161.083984375" xlink:href="#BitstreamVeraSans-Roman-50"/>
     </g>
    </g>
    <g id="line2d_30">
     <path d="
M250.896 309
L267.696 309" style="fill:none;stroke:#ff0000;stroke-width:2;"/>
    </g>
    <g id="line2d_31"/>
    <g id="text_16">
     <!-- LID -->
     <defs>
      <path d="
M9.8125 72.9062
L19.6719 72.9062
L19.6719 8.29688
L55.1719 8.29688
L55.1719 0
L9.8125 0
z
" id="BitstreamVeraSans-Roman-4c"/>
      <path d="
M9.8125 72.9062
L19.6719 72.9062
L19.6719 0
L9.8125 0
z
" id="BitstreamVeraSans-Roman-49"/>
     </defs>
     <g transform="translate(280.895625 313.2)scale(0.12 -0.12)">
      <use xlink:href="#BitstreamVeraSans-Roman-4c"/>
      <use x="55.712890625" xlink:href="#BitstreamVeraSans-Roman-49"/>
      <use x="85.205078125" xlink:href="#BitstreamVeraSans-Roman-44"/>
     </g>
    </g>
   </g>
  </g>
 </g>
 <defs>
  <clipPath id="pa3442b8bd5">
   <rect height="288.0" width="279.0" x="45.0" y="36.0"/>
  </clipPath>
 </defs>
</svg>
