<?xml version="1.0" encoding="utf-8" standalone="no"?>
<!DOCTYPE svg PUBLIC "-//W3C//DTD SVG 1.1//EN"
  "http://www.w3.org/Graphics/SVG/1.1/DTD/svg11.dtd">
<!-- Created with matplotlib (http://matplotlib.org/) -->
<svg height="216pt" version="1.1" viewBox="0 0 432 216" width="432pt" xmlns="http://www.w3.org/2000/svg" xmlns:xlink="http://www.w3.org/1999/xlink">
 <defs>
  <style type="text/css">
*{stroke-linecap:square;stroke-linejoin:round;}
  </style>
 </defs>
 <g id="figure_1">
  <g id="patch_1">
   <path d="
M0 216
L432 216
L432 0
L0 0
z
" style="fill:#ffffff;"/>
  </g>
  <g id="axes_1">
   <g id="patch_2">
    <path d="
M51.84 172.8
L204.547 172.8
L204.547 21.6
L51.84 21.6
z
" style="fill:#ffffff;"/>
   </g>
   <g id="line2d_1">
    <path clip-path="url(#pa20410386e)" d="
M53.3671 167.603
L54.8941 166.918
L56.4212 166.407
L57.9483 166.345
L59.4753 165.844
L61.0024 166.268
L62.5295 166.254
L64.0566 165.932
L65.5836 166.137
L67.1107 165.576
L68.6378 164.557
L70.1648 164.358
L71.6919 163.838
L73.219 163.052
L74.746 162.799
L76.2731 163.205
L77.8002 162.232
L79.3273 162.504
L80.8543 163.232
L82.3814 162.954
L83.9085 162.834
L85.4355 162.836
L86.9626 162.257
L88.4897 162.184
L90.0167 162.016
L91.5438 161.922
L93.0709 161.869
L94.5979 161.454
L96.125 161.142
L97.6521 161.286
L99.1792 161.214
L100.706 160.719
L102.233 160.487
L103.76 160.377
L105.287 160.563
L106.815 160.325
L108.342 160.268
L109.869 159.618
L111.396 159.651
L112.923 159.311
L114.45 158.543
L115.977 158.061
L117.504 157.424
L119.031 157.536
L120.558 157.304
L122.085 156.438
L123.612 155.664
L125.139 154.929
L126.666 154.376
L128.193 153.079
L129.721 152.913
L131.248 151.448
L132.775 150.261
L134.302 149.205
L135.829 148.584
L137.356 147.789
L138.883 147.274
L140.41 146.493
L141.937 145.158
L143.464 144.8
L144.991 143.76
L146.518 143.954
L148.045 142.973
L149.572 142.321
L151.1 141.662
L152.627 141.04
L154.154 140.124
L155.681 139.61
L157.208 138.741
L158.735 139.037
L160.262 137.903
L161.789 137.419
L163.316 137.089
L164.843 136.589
L166.37 136.992
L167.897 136.568
L169.424 135.802
L170.951 135.312
L172.479 135.228
L174.006 134.443
L175.533 134.223
L177.06 133.165
L178.587 133.145
L180.114 133.964
L181.641 134.138
L183.168 134.297
L184.695 134.148
L186.222 133.472
L187.749 133.639
L189.276 133.704
L190.803 133.755
L192.33 133.693
L193.857 133.905
L195.385 133.729
L196.912 133.138
L198.439 132.493
L199.966 132.902
L201.493 132.657" style="fill:none;stroke:#0000ff;stroke-width:2;"/>
   </g>
   <g id="line2d_2">
    <path clip-path="url(#pa20410386e)" d="
M53.3671 88.3689
L54.8941 88.1344
L56.4212 88.0126
L57.9483 87.1164
L59.4753 86.7736
L61.0024 85.0314
L62.5295 83.1279
L64.0566 81.3658
L65.5836 80.42
L67.1107 78.6331
L68.6378 78.4852
L70.1648 78.4189
L71.6919 76.6485
L73.219 75.7384
L74.746 74.8621
L76.2731 73.7951
L77.8002 72.648
L79.3273 72.5882
L80.8543 70.4718
L82.3814 69.7168
L83.9085 69.4401
L85.4355 69.7127
L86.9626 68.8598
L88.4897 69.2141
L90.0167 68.0012
L91.5438 66.6806
L93.0709 65.9828
L94.5979 62.9659
L96.125 62.5049
L97.6521 60.1877
L99.1792 60.0302
L100.706 60.3019
L102.233 58.845
L103.76 58.5073
L105.287 57.9264
L106.815 57.4938
L108.342 56.2558
L109.869 56.5186
L111.396 55.661
L112.923 55.8046
L114.45 55.4049
L115.977 53.7891
L117.504 54.3811
L119.031 53.9292
L120.558 53.8284
L122.085 53.636
L123.612 52.8709
L125.139 51.01
L126.666 51.0883
L128.193 50.4461
L129.721 49.6079
L131.248 48.8907
L132.775 47.1915
L134.302 48.5269
L135.829 50.23
L137.356 49.6365
L138.883 47.8135
L140.41 48.2286
L141.937 47.7085
L143.464 49.1646
L144.991 48.0427
L146.518 47.381
L148.045 47.242
L149.572 46.7169
L151.1 44.6473
L152.627 43.9804
L154.154 43.7647
L155.681 43.3309
L157.208 43.0465
L158.735 42.5757
L160.262 41.4179
L161.789 41.0914
L163.316 39.7651
L164.843 39.4915
L166.37 39.6323
L167.897 39.8361
L169.424 39.3297
L170.951 39.0041
L172.479 39.3991
L174.006 39.616
L175.533 39.6993
L177.06 41.5032
L178.587 40.2133
L180.114 40.1479
L181.641 40.0154
L183.168 41.0578
L184.695 40.8684
L186.222 40.2956
L187.749 40.3353
L189.276 39.8868
L190.803 39.7229
L192.33 39.7433
L193.857 40.1553
L195.385 39.7147
L196.912 40.6688
L198.439 40.6754
L199.966 41.2919
L201.493 40.6967" style="fill:none;stroke:#ff0000;stroke-width:2;"/>
   </g>
   <g id="matplotlib.axis_1">
    <g id="xtick_1">
     <g id="line2d_3">
      <defs>
       <path d="
M0 0
L0 -4" id="mcb557df647" style="stroke:#000000;stroke-linecap:butt;stroke-width:0.5;"/>
      </defs>
      <g>
       <use style="stroke:#000000;stroke-linecap:butt;stroke-width:0.5;" x="51.84" xlink:href="#mcb557df647" y="172.8"/>
      </g>
     </g>
     <g id="line2d_4">
      <defs>
       <path d="
M0 0
L0 4" id="mdad270ee8e" style="stroke:#000000;stroke-linecap:butt;stroke-width:0.5;"/>
      </defs>
      <g>
       <use style="stroke:#000000;stroke-linecap:butt;stroke-width:0.5;" x="51.84" xlink:href="#mdad270ee8e" y="21.6"/>
      </g>
     </g>
     <g id="text_1">
      <!-- 0 -->
      <defs>
       <path d="
M31.7812 66.4062
Q24.1719 66.4062 20.3281 58.9062
Q16.5 51.4219 16.5 36.375
Q16.5 21.3906 20.3281 13.8906
Q24.1719 6.39062 31.7812 6.39062
Q39.4531 6.39062 43.2812 13.8906
Q47.125 21.3906 47.125 36.375
Q47.125 51.4219 43.2812 58.9062
Q39.4531 66.4062 31.7812 66.4062
M31.7812 74.2188
Q44.0469 74.2188 50.5156 64.5156
Q56.9844 54.8281 56.9844 36.375
Q56.9844 17.9688 50.5156 8.26562
Q44.0469 -1.42188 31.7812 -1.42188
Q19.5312 -1.42188 13.0625 8.26562
Q6.59375 17.9688 6.59375 36.375
Q6.59375 54.8281 13.0625 64.5156
Q19.5312 74.2188 31.7812 74.2188" id="BitstreamVeraSans-Roman-30"/>
      </defs>
      <g transform="translate(49.32046875 184.221875)scale(0.1 -0.1)">
       <use xlink:href="#BitstreamVeraSans-Roman-30"/>
      </g>
     </g>
    </g>
    <g id="xtick_2">
     <g id="line2d_5">
      <g>
       <use style="stroke:#000000;stroke-linecap:butt;stroke-width:0.5;" x="82.3813953488" xlink:href="#mcb557df647" y="172.8"/>
      </g>
     </g>
     <g id="line2d_6">
      <g>
       <use style="stroke:#000000;stroke-linecap:butt;stroke-width:0.5;" x="82.3813953488" xlink:href="#mdad270ee8e" y="21.6"/>
      </g>
     </g>
     <g id="text_2">
      <!-- 20 -->
      <defs>
       <path d="
M19.1875 8.29688
L53.6094 8.29688
L53.6094 0
L7.32812 0
L7.32812 8.29688
Q12.9375 14.1094 22.625 23.8906
Q32.3281 33.6875 34.8125 36.5312
Q39.5469 41.8438 41.4219 45.5312
Q43.3125 49.2188 43.3125 52.7812
Q43.3125 58.5938 39.2344 62.25
Q35.1562 65.9219 28.6094 65.9219
Q23.9688 65.9219 18.8125 64.3125
Q13.6719 62.7031 7.8125 59.4219
L7.8125 69.3906
Q13.7656 71.7812 18.9375 73
Q24.125 74.2188 28.4219 74.2188
Q39.75 74.2188 46.4844 68.5469
Q53.2188 62.8906 53.2188 53.4219
Q53.2188 48.9219 51.5312 44.8906
Q49.8594 40.875 45.4062 35.4062
Q44.1875 33.9844 37.6406 27.2188
Q31.1094 20.4531 19.1875 8.29688" id="BitstreamVeraSans-Roman-32"/>
      </defs>
      <g transform="translate(76.7173328488 184.221875)scale(0.1 -0.1)">
       <use xlink:href="#BitstreamVeraSans-Roman-32"/>
       <use x="63.623046875" xlink:href="#BitstreamVeraSans-Roman-30"/>
      </g>
     </g>
    </g>
    <g id="xtick_3">
     <g id="line2d_7">
      <g>
       <use style="stroke:#000000;stroke-linecap:butt;stroke-width:0.5;" x="112.922790698" xlink:href="#mcb557df647" y="172.8"/>
      </g>
     </g>
     <g id="line2d_8">
      <g>
       <use style="stroke:#000000;stroke-linecap:butt;stroke-width:0.5;" x="112.922790698" xlink:href="#mdad270ee8e" y="21.6"/>
      </g>
     </g>
     <g id="text_3">
      <!-- 40 -->
      <defs>
       <path d="
M37.7969 64.3125
L12.8906 25.3906
L37.7969 25.3906
z

M35.2031 72.9062
L47.6094 72.9062
L47.6094 25.3906
L58.0156 25.3906
L58.0156 17.1875
L47.6094 17.1875
L47.6094 0
L37.7969 0
L37.7969 17.1875
L4.89062 17.1875
L4.89062 26.7031
z
" id="BitstreamVeraSans-Roman-34"/>
      </defs>
      <g transform="translate(107.136853198 184.221875)scale(0.1 -0.1)">
       <use xlink:href="#BitstreamVeraSans-Roman-34"/>
       <use x="63.623046875" xlink:href="#BitstreamVeraSans-Roman-30"/>
      </g>
     </g>
    </g>
    <g id="xtick_4">
     <g id="line2d_9">
      <g>
       <use style="stroke:#000000;stroke-linecap:butt;stroke-width:0.5;" x="143.464186047" xlink:href="#mcb557df647" y="172.8"/>
      </g>
     </g>
     <g id="line2d_10">
      <g>
       <use style="stroke:#000000;stroke-linecap:butt;stroke-width:0.5;" x="143.464186047" xlink:href="#mdad270ee8e" y="21.6"/>
      </g>
     </g>
     <g id="text_4">
      <!-- 60 -->
      <defs>
       <path d="
M33.0156 40.375
Q26.375 40.375 22.4844 35.8281
Q18.6094 31.2969 18.6094 23.3906
Q18.6094 15.5312 22.4844 10.9531
Q26.375 6.39062 33.0156 6.39062
Q39.6562 6.39062 43.5312 10.9531
Q47.4062 15.5312 47.4062 23.3906
Q47.4062 31.2969 43.5312 35.8281
Q39.6562 40.375 33.0156 40.375
M52.5938 71.2969
L52.5938 62.3125
Q48.875 64.0625 45.0938 64.9844
Q41.3125 65.9219 37.5938 65.9219
Q27.8281 65.9219 22.6719 59.3281
Q17.5312 52.7344 16.7969 39.4062
Q19.6719 43.6562 24.0156 45.9219
Q28.375 48.1875 33.5938 48.1875
Q44.5781 48.1875 50.9531 41.5156
Q57.3281 34.8594 57.3281 23.3906
Q57.3281 12.1562 50.6875 5.35938
Q44.0469 -1.42188 33.0156 -1.42188
Q20.3594 -1.42188 13.6719 8.26562
Q6.98438 17.9688 6.98438 36.375
Q6.98438 53.6562 15.1875 63.9375
Q23.3906 74.2188 37.2031 74.2188
Q40.9219 74.2188 44.7031 73.4844
Q48.4844 72.75 52.5938 71.2969" id="BitstreamVeraSans-Roman-36"/>
      </defs>
      <g transform="translate(137.782936047 184.221875)scale(0.1 -0.1)">
       <use xlink:href="#BitstreamVeraSans-Roman-36"/>
       <use x="63.623046875" xlink:href="#BitstreamVeraSans-Roman-30"/>
      </g>
     </g>
    </g>
    <g id="xtick_5">
     <g id="line2d_11">
      <g>
       <use style="stroke:#000000;stroke-linecap:butt;stroke-width:0.5;" x="174.005581395" xlink:href="#mcb557df647" y="172.8"/>
      </g>
     </g>
     <g id="line2d_12">
      <g>
       <use style="stroke:#000000;stroke-linecap:butt;stroke-width:0.5;" x="174.005581395" xlink:href="#mdad270ee8e" y="21.6"/>
      </g>
     </g>
     <g id="text_5">
      <!-- 80 -->
      <defs>
       <path d="
M31.7812 34.625
Q24.75 34.625 20.7188 30.8594
Q16.7031 27.0938 16.7031 20.5156
Q16.7031 13.9219 20.7188 10.1562
Q24.75 6.39062 31.7812 6.39062
Q38.8125 6.39062 42.8594 10.1719
Q46.9219 13.9688 46.9219 20.5156
Q46.9219 27.0938 42.8906 30.8594
Q38.875 34.625 31.7812 34.625
M21.9219 38.8125
Q15.5781 40.375 12.0312 44.7188
Q8.5 49.0781 8.5 55.3281
Q8.5 64.0625 14.7188 69.1406
Q20.9531 74.2188 31.7812 74.2188
Q42.6719 74.2188 48.875 69.1406
Q55.0781 64.0625 55.0781 55.3281
Q55.0781 49.0781 51.5312 44.7188
Q48 40.375 41.7031 38.8125
Q48.8281 37.1562 52.7969 32.3125
Q56.7812 27.4844 56.7812 20.5156
Q56.7812 9.90625 50.3125 4.23438
Q43.8438 -1.42188 31.7812 -1.42188
Q19.7344 -1.42188 13.25 4.23438
Q6.78125 9.90625 6.78125 20.5156
Q6.78125 27.4844 10.7812 32.3125
Q14.7969 37.1562 21.9219 38.8125
M18.3125 54.3906
Q18.3125 48.7344 21.8438 45.5625
Q25.3906 42.3906 31.7812 42.3906
Q38.1406 42.3906 41.7188 45.5625
Q45.3125 48.7344 45.3125 54.3906
Q45.3125 60.0625 41.7188 63.2344
Q38.1406 66.4062 31.7812 66.4062
Q25.3906 66.4062 21.8438 63.2344
Q18.3125 60.0625 18.3125 54.3906" id="BitstreamVeraSans-Roman-38"/>
      </defs>
      <g transform="translate(168.314175145 184.221875)scale(0.1 -0.1)">
       <use xlink:href="#BitstreamVeraSans-Roman-38"/>
       <use x="63.623046875" xlink:href="#BitstreamVeraSans-Roman-30"/>
      </g>
     </g>
    </g>
    <g id="xtick_6">
     <g id="line2d_13">
      <g>
       <use style="stroke:#000000;stroke-linecap:butt;stroke-width:0.5;" x="204.546976744" xlink:href="#mcb557df647" y="172.8"/>
      </g>
     </g>
     <g id="line2d_14">
      <g>
       <use style="stroke:#000000;stroke-linecap:butt;stroke-width:0.5;" x="204.546976744" xlink:href="#mdad270ee8e" y="21.6"/>
      </g>
     </g>
     <g id="text_6">
      <!-- 100 -->
      <defs>
       <path d="
M12.4062 8.29688
L28.5156 8.29688
L28.5156 63.9219
L10.9844 60.4062
L10.9844 69.3906
L28.4219 72.9062
L38.2812 72.9062
L38.2812 8.29688
L54.3906 8.29688
L54.3906 0
L12.4062 0
z
" id="BitstreamVeraSans-Roman-31"/>
      </defs>
      <g transform="translate(195.884476744 184.221875)scale(0.1 -0.1)">
       <use xlink:href="#BitstreamVeraSans-Roman-31"/>
       <use x="63.623046875" xlink:href="#BitstreamVeraSans-Roman-30"/>
       <use x="127.24609375" xlink:href="#BitstreamVeraSans-Roman-30"/>
      </g>
     </g>
    </g>
    <g id="text_7">
     <!-- time $t$ (ps) -->
     <defs>
      <path id="BitstreamVeraSans-Roman-20"/>
      <path d="
M8.01562 75.875
L15.8281 75.875
Q23.1406 64.3594 26.7812 53.3125
Q30.4219 42.2812 30.4219 31.3906
Q30.4219 20.4531 26.7812 9.375
Q23.1406 -1.70312 15.8281 -13.1875
L8.01562 -13.1875
Q14.5 -2 17.7031 9.0625
Q20.9062 20.125 20.9062 31.3906
Q20.9062 42.6719 17.7031 53.6562
Q14.5 64.6562 8.01562 75.875" id="BitstreamVeraSans-Roman-29"/>
      <path d="
M52 44.1875
Q55.375 50.25 60.0625 53.125
Q64.75 56 71.0938 56
Q79.6406 56 84.2812 50.0156
Q88.9219 44.0469 88.9219 33.0156
L88.9219 0
L79.8906 0
L79.8906 32.7188
Q79.8906 40.5781 77.0938 44.375
Q74.3125 48.1875 68.6094 48.1875
Q61.625 48.1875 57.5625 43.5469
Q53.5156 38.9219 53.5156 30.9062
L53.5156 0
L44.4844 0
L44.4844 32.7188
Q44.4844 40.625 41.7031 44.4062
Q38.9219 48.1875 33.1094 48.1875
Q26.2188 48.1875 22.1562 43.5312
Q18.1094 38.875 18.1094 30.9062
L18.1094 0
L9.07812 0
L9.07812 54.6875
L18.1094 54.6875
L18.1094 46.1875
Q21.1875 51.2188 25.4844 53.6094
Q29.7812 56 35.6875 56
Q41.6562 56 45.8281 52.9688
Q50 49.9531 52 44.1875" id="BitstreamVeraSans-Roman-6d"/>
      <path d="
M9.42188 54.6875
L18.4062 54.6875
L18.4062 0
L9.42188 0
z

M9.42188 75.9844
L18.4062 75.9844
L18.4062 64.5938
L9.42188 64.5938
z
" id="BitstreamVeraSans-Roman-69"/>
      <path d="
M6.20312 8.10938
Q6.20312 9.57812 6.5 10.8906
L13.7188 39.5938
L3.21875 39.5938
Q2.20312 39.5938 2.20312 40.9219
Q2.59375 43.1094 3.51562 43.1094
L14.5938 43.1094
L18.6094 59.4219
Q19 60.75 20.1719 61.6719
Q21.3438 62.5938 22.7969 62.5938
Q24.0781 62.5938 24.9219 61.8281
Q25.7812 61.0781 25.7812 59.8125
Q25.7812 59.5156 25.75 59.3438
Q25.7344 59.1875 25.6875 58.9844
L21.6875 43.1094
L31.9844 43.1094
Q33.0156 43.1094 33.0156 41.7969
Q32.9531 41.5469 32.8125 40.9531
Q32.6719 40.375 32.4219 39.9844
Q32.1719 39.5938 31.6875 39.5938
L20.7969 39.5938
L13.625 10.6875
Q12.8906 7.85938 12.8906 5.8125
Q12.8906 1.51562 15.8281 1.51562
Q20.2188 1.51562 23.6094 5.64062
Q27 9.76562 28.8125 14.7031
Q29.2031 15.2812 29.5938 15.2812
L30.8125 15.2812
Q31.2031 15.2812 31.4375 15.0156
Q31.6875 14.75 31.6875 14.4062
Q31.6875 14.2031 31.5938 14.1094
Q29.3906 8.0625 25.1875 3.46875
Q21 -1.125 15.5781 -1.125
Q11.625 -1.125 8.90625 1.45312
Q6.20312 4.04688 6.20312 8.10938" id="Cmmi10-74"/>
      <path d="
M31 75.875
Q24.4688 64.6562 21.2812 53.6562
Q18.1094 42.6719 18.1094 31.3906
Q18.1094 20.125 21.3125 9.0625
Q24.5156 -2 31 -13.1875
L23.1875 -13.1875
Q15.875 -1.70312 12.2344 9.375
Q8.59375 20.4531 8.59375 31.3906
Q8.59375 42.2812 12.2031 53.3125
Q15.8281 64.3594 23.1875 75.875
z
" id="BitstreamVeraSans-Roman-28"/>
      <path d="
M56.2031 29.5938
L56.2031 25.2031
L14.8906 25.2031
Q15.4844 15.9219 20.4844 11.0625
Q25.4844 6.20312 34.4219 6.20312
Q39.5938 6.20312 44.4531 7.46875
Q49.3125 8.73438 54.1094 11.2812
L54.1094 2.78125
Q49.2656 0.734375 44.1875 -0.34375
Q39.1094 -1.42188 33.8906 -1.42188
Q20.7969 -1.42188 13.1562 6.1875
Q5.51562 13.8125 5.51562 26.8125
Q5.51562 40.2344 12.7656 48.1094
Q20.0156 56 32.3281 56
Q43.3594 56 49.7812 48.8906
Q56.2031 41.7969 56.2031 29.5938
M47.2188 32.2344
Q47.125 39.5938 43.0938 43.9844
Q39.0625 48.3906 32.4219 48.3906
Q24.9062 48.3906 20.3906 44.1406
Q15.875 39.8906 15.1875 32.1719
z
" id="BitstreamVeraSans-Roman-65"/>
      <path d="
M18.3125 70.2188
L18.3125 54.6875
L36.8125 54.6875
L36.8125 47.7031
L18.3125 47.7031
L18.3125 18.0156
Q18.3125 11.3281 20.1406 9.42188
Q21.9688 7.51562 27.5938 7.51562
L36.8125 7.51562
L36.8125 0
L27.5938 0
Q17.1875 0 13.2344 3.875
Q9.28125 7.76562 9.28125 18.0156
L9.28125 47.7031
L2.6875 47.7031
L2.6875 54.6875
L9.28125 54.6875
L9.28125 70.2188
z
" id="BitstreamVeraSans-Roman-74"/>
      <path d="
M44.2812 53.0781
L44.2812 44.5781
Q40.4844 46.5312 36.375 47.5
Q32.2812 48.4844 27.875 48.4844
Q21.1875 48.4844 17.8438 46.4375
Q14.5 44.3906 14.5 40.2812
Q14.5 37.1562 16.8906 35.375
Q19.2812 33.5938 26.5156 31.9844
L29.5938 31.2969
Q39.1562 29.25 43.1875 25.5156
Q47.2188 21.7812 47.2188 15.0938
Q47.2188 7.46875 41.1875 3.01562
Q35.1562 -1.42188 24.6094 -1.42188
Q20.2188 -1.42188 15.4531 -0.5625
Q10.6875 0.296875 5.42188 2
L5.42188 11.2812
Q10.4062 8.6875 15.2344 7.39062
Q20.0625 6.10938 24.8125 6.10938
Q31.1562 6.10938 34.5625 8.28125
Q37.9844 10.4531 37.9844 14.4062
Q37.9844 18.0625 35.5156 20.0156
Q33.0625 21.9688 24.7031 23.7812
L21.5781 24.5156
Q13.2344 26.2656 9.51562 29.9062
Q5.8125 33.5469 5.8125 39.8906
Q5.8125 47.6094 11.2812 51.7969
Q16.75 56 26.8125 56
Q31.7812 56 36.1719 55.2656
Q40.5781 54.5469 44.2812 53.0781" id="BitstreamVeraSans-Roman-73"/>
      <path d="
M18.1094 8.20312
L18.1094 -20.7969
L9.07812 -20.7969
L9.07812 54.6875
L18.1094 54.6875
L18.1094 46.3906
Q20.9531 51.2656 25.2656 53.625
Q29.5938 56 35.5938 56
Q45.5625 56 51.7812 48.0938
Q58.0156 40.1875 58.0156 27.2969
Q58.0156 14.4062 51.7812 6.48438
Q45.5625 -1.42188 35.5938 -1.42188
Q29.5938 -1.42188 25.2656 0.953125
Q20.9531 3.32812 18.1094 8.20312
M48.6875 27.2969
Q48.6875 37.2031 44.6094 42.8438
Q40.5312 48.4844 33.4062 48.4844
Q26.2656 48.4844 22.1875 42.8438
Q18.1094 37.2031 18.1094 27.2969
Q18.1094 17.3906 22.1875 11.75
Q26.2656 6.10938 33.4062 6.10938
Q40.5312 6.10938 44.6094 11.75
Q48.6875 17.3906 48.6875 27.2969" id="BitstreamVeraSans-Roman-70"/>
     </defs>
     <g transform="translate(102.193488372 199.0640625)scale(0.1 -0.1)">
      <use transform="translate(0.0 21.015625)" xlink:href="#BitstreamVeraSans-Roman-74"/>
      <use transform="translate(39.208984375 21.015625)" xlink:href="#BitstreamVeraSans-Roman-69"/>
      <use transform="translate(66.9921875 21.015625)" xlink:href="#BitstreamVeraSans-Roman-6d"/>
      <use transform="translate(164.404296875 21.015625)" xlink:href="#BitstreamVeraSans-Roman-65"/>
      <use transform="translate(225.927734375 21.015625)" xlink:href="#BitstreamVeraSans-Roman-20"/>
      <use transform="translate(257.71484375 21.015625)" xlink:href="#Cmmi10-74"/>
      <use transform="translate(293.798828125 21.015625)" xlink:href="#BitstreamVeraSans-Roman-20"/>
      <use transform="translate(325.5859375 21.015625)" xlink:href="#BitstreamVeraSans-Roman-28"/>
      <use transform="translate(364.599609375 21.015625)" xlink:href="#BitstreamVeraSans-Roman-70"/>
      <use transform="translate(428.076171875 21.015625)" xlink:href="#BitstreamVeraSans-Roman-73"/>
      <use transform="translate(480.17578125 21.015625)" xlink:href="#BitstreamVeraSans-Roman-29"/>
     </g>
    </g>
   </g>
   <g id="matplotlib.axis_2">
    <g id="ytick_1">
     <g id="line2d_15">
      <defs>
       <path d="
M0 0
L4 0" id="mc8fcea1516" style="stroke:#000000;stroke-linecap:butt;stroke-width:0.5;"/>
      </defs>
      <g>
       <use style="stroke:#000000;stroke-linecap:butt;stroke-width:0.5;" x="51.84" xlink:href="#mc8fcea1516" y="172.8"/>
      </g>
     </g>
     <g id="line2d_16">
      <defs>
       <path d="
M0 0
L-4 0" id="m0d5b0a6425" style="stroke:#000000;stroke-linecap:butt;stroke-width:0.5;"/>
      </defs>
      <g>
       <use style="stroke:#000000;stroke-linecap:butt;stroke-width:0.5;" x="204.546976744" xlink:href="#m0d5b0a6425" y="172.8"/>
      </g>
     </g>
     <g id="text_8">
      <!-- 40$^\circ$ -->
      <defs>
       <path d="
M25 5.60938
Q19.8281 5.60938 15.3594 8.21875
Q10.8906 10.8438 8.25 15.375
Q5.60938 19.9219 5.60938 25
Q5.60938 30.0781 8.25 34.6094
Q10.8906 39.1562 15.3594 41.7656
Q19.8281 44.3906 25 44.3906
Q30.1719 44.3906 34.6094 41.75
Q39.0625 39.1094 41.6719 34.5938
Q44.2812 30.0781 44.2812 25
Q44.2812 19.9219 41.6719 15.4062
Q39.0625 10.8906 34.6094 8.25
Q30.1719 5.60938 25 5.60938
M25 9.625
Q31.25 9.625 35.7656 14.1875
Q40.2812 18.75 40.2812 25
Q40.2812 29 38.2031 32.5938
Q36.1406 36.1875 32.625 38.2812
Q29.1094 40.375 25 40.375
Q21.9219 40.375 19.1406 39.1719
Q16.3594 37.9844 14.1562 35.7812
Q11.9688 33.5938 10.7969 30.8281
Q9.625 28.0781 9.625 25
Q9.625 18.75 14.1406 14.1875
Q18.6562 9.625 25 9.625" id="Cmsy10-b1"/>
      </defs>
      <g transform="translate(28.24 176.65)scale(0.1 -0.1)">
       <use transform="translate(0.0 2.78125)" xlink:href="#BitstreamVeraSans-Roman-34"/>
       <use transform="translate(63.623046875 2.78125)" xlink:href="#BitstreamVeraSans-Roman-30"/>
       <use transform="translate(139.537109375 45.296875)scale(0.7)" xlink:href="#Cmsy10-b1"/>
      </g>
     </g>
    </g>
    <g id="ytick_2">
     <g id="line2d_17">
      <g>
       <use style="stroke:#000000;stroke-linecap:butt;stroke-width:0.5;" x="51.84" xlink:href="#mc8fcea1516" y="147.6"/>
      </g>
     </g>
     <g id="line2d_18">
      <g>
       <use style="stroke:#000000;stroke-linecap:butt;stroke-width:0.5;" x="204.546976744" xlink:href="#m0d5b0a6425" y="147.6"/>
      </g>
     </g>
     <g id="text_9">
      <!-- 60$^\circ$ -->
      <g transform="translate(28.24 151.45)scale(0.1 -0.1)">
       <use transform="translate(0.0 2.78125)" xlink:href="#BitstreamVeraSans-Roman-36"/>
       <use transform="translate(63.623046875 2.78125)" xlink:href="#BitstreamVeraSans-Roman-30"/>
       <use transform="translate(139.537109375 45.296875)scale(0.7)" xlink:href="#Cmsy10-b1"/>
      </g>
     </g>
    </g>
    <g id="ytick_3">
     <g id="line2d_19">
      <g>
       <use style="stroke:#000000;stroke-linecap:butt;stroke-width:0.5;" x="51.84" xlink:href="#mc8fcea1516" y="122.4"/>
      </g>
     </g>
     <g id="line2d_20">
      <g>
       <use style="stroke:#000000;stroke-linecap:butt;stroke-width:0.5;" x="204.546976744" xlink:href="#m0d5b0a6425" y="122.4"/>
      </g>
     </g>
     <g id="text_10">
      <!-- 80$^\circ$ -->
      <g transform="translate(28.24 126.25)scale(0.1 -0.1)">
       <use transform="translate(0.0 2.78125)" xlink:href="#BitstreamVeraSans-Roman-38"/>
       <use transform="translate(63.623046875 2.78125)" xlink:href="#BitstreamVeraSans-Roman-30"/>
       <use transform="translate(139.537109375 45.296875)scale(0.7)" xlink:href="#Cmsy10-b1"/>
      </g>
     </g>
    </g>
    <g id="ytick_4">
     <g id="line2d_21">
      <g>
       <use style="stroke:#000000;stroke-linecap:butt;stroke-width:0.5;" x="51.84" xlink:href="#mc8fcea1516" y="97.2"/>
      </g>
     </g>
     <g id="line2d_22">
      <g>
       <use style="stroke:#000000;stroke-linecap:butt;stroke-width:0.5;" x="204.546976744" xlink:href="#m0d5b0a6425" y="97.2"/>
      </g>
     </g>
     <g id="text_11">
      <!-- 100$^\circ$ -->
      <g transform="translate(21.84 101.05)scale(0.1 -0.1)">
       <use transform="translate(0.0 2.78125)" xlink:href="#BitstreamVeraSans-Roman-31"/>
       <use transform="translate(63.623046875 2.78125)" xlink:href="#BitstreamVeraSans-Roman-30"/>
       <use transform="translate(127.24609375 2.78125)" xlink:href="#BitstreamVeraSans-Roman-30"/>
       <use transform="translate(203.16015625 45.296875)scale(0.7)" xlink:href="#Cmsy10-b1"/>
      </g>
     </g>
    </g>
    <g id="ytick_5">
     <g id="line2d_23">
      <g>
       <use style="stroke:#000000;stroke-linecap:butt;stroke-width:0.5;" x="51.84" xlink:href="#mc8fcea1516" y="72.0"/>
      </g>
     </g>
     <g id="line2d_24">
      <g>
       <use style="stroke:#000000;stroke-linecap:butt;stroke-width:0.5;" x="204.546976744" xlink:href="#m0d5b0a6425" y="72.0"/>
      </g>
     </g>
     <g id="text_12">
      <!-- 120$^\circ$ -->
      <g transform="translate(21.84 75.85)scale(0.1 -0.1)">
       <use transform="translate(0.0 2.78125)" xlink:href="#BitstreamVeraSans-Roman-31"/>
       <use transform="translate(63.623046875 2.78125)" xlink:href="#BitstreamVeraSans-Roman-32"/>
       <use transform="translate(127.24609375 2.78125)" xlink:href="#BitstreamVeraSans-Roman-30"/>
       <use transform="translate(203.16015625 45.296875)scale(0.7)" xlink:href="#Cmsy10-b1"/>
      </g>
     </g>
    </g>
    <g id="ytick_6">
     <g id="line2d_25">
      <g>
       <use style="stroke:#000000;stroke-linecap:butt;stroke-width:0.5;" x="51.84" xlink:href="#mc8fcea1516" y="46.8"/>
      </g>
     </g>
     <g id="line2d_26">
      <g>
       <use style="stroke:#000000;stroke-linecap:butt;stroke-width:0.5;" x="204.546976744" xlink:href="#m0d5b0a6425" y="46.8"/>
      </g>
     </g>
     <g id="text_13">
      <!-- 140$^\circ$ -->
      <g transform="translate(21.84 50.65)scale(0.1 -0.1)">
       <use transform="translate(0.0 2.78125)" xlink:href="#BitstreamVeraSans-Roman-31"/>
       <use transform="translate(63.623046875 2.78125)" xlink:href="#BitstreamVeraSans-Roman-34"/>
       <use transform="translate(127.24609375 2.78125)" xlink:href="#BitstreamVeraSans-Roman-30"/>
       <use transform="translate(203.16015625 45.296875)scale(0.7)" xlink:href="#Cmsy10-b1"/>
      </g>
     </g>
    </g>
    <g id="ytick_7">
     <g id="line2d_27">
      <g>
       <use style="stroke:#000000;stroke-linecap:butt;stroke-width:0.5;" x="51.84" xlink:href="#mc8fcea1516" y="21.6"/>
      </g>
     </g>
     <g id="line2d_28">
      <g>
       <use style="stroke:#000000;stroke-linecap:butt;stroke-width:0.5;" x="204.546976744" xlink:href="#m0d5b0a6425" y="21.6"/>
      </g>
     </g>
     <g id="text_14">
      <!-- 160$^\circ$ -->
      <g transform="translate(21.84 25.45)scale(0.1 -0.1)">
       <use transform="translate(0.0 2.78125)" xlink:href="#BitstreamVeraSans-Roman-31"/>
       <use transform="translate(63.623046875 2.78125)" xlink:href="#BitstreamVeraSans-Roman-36"/>
       <use transform="translate(127.24609375 2.78125)" xlink:href="#BitstreamVeraSans-Roman-30"/>
       <use transform="translate(203.16015625 45.296875)scale(0.7)" xlink:href="#Cmsy10-b1"/>
      </g>
     </g>
    </g>
    <g id="text_15">
     <!-- angle $\theta$ -->
     <defs>
      <path d="
M54.8906 33.0156
L54.8906 0
L45.9062 0
L45.9062 32.7188
Q45.9062 40.4844 42.875 44.3281
Q39.8438 48.1875 33.7969 48.1875
Q26.5156 48.1875 22.3125 43.5469
Q18.1094 38.9219 18.1094 30.9062
L18.1094 0
L9.07812 0
L9.07812 54.6875
L18.1094 54.6875
L18.1094 46.1875
Q21.3438 51.125 25.7031 53.5625
Q30.0781 56 35.7969 56
Q45.2188 56 50.0469 50.1719
Q54.8906 44.3438 54.8906 33.0156" id="BitstreamVeraSans-Roman-6e"/>
      <path d="
M16.1094 -1.125
Q11.5781 -1.125 8.84375 2.1875
Q6.10938 5.51562 5.04688 10.2031
Q4 14.8906 4 19.4844
L4 19.5781
Q4 24.5625 4.95312 29.9219
Q5.90625 35.2969 7.70312 40.6406
Q9.51562 46 11.625 50.2031
Q13.0938 53.125 15.4062 56.7344
Q17.7188 60.3594 20.5781 63.5
Q23.4375 66.6562 26.7344 68.5781
Q30.0312 70.5156 33.4062 70.5156
L33.5 70.5156
Q37.1094 70.5156 39.5156 68.5
Q41.9375 66.5 43.2812 63.375
Q44.625 60.25 45.1562 56.6875
Q45.7031 53.125 45.7031 49.9062
Q45.7031 42.3281 43.6562 34.4375
Q41.6094 26.5625 37.9844 19.1875
Q36.625 16.4062 34.2031 12.6406
Q31.7812 8.89062 29.0781 5.90625
Q26.375 2.9375 23 0.90625
Q19.625 -1.125 16.2188 -1.125
z

M16.3125 1.51562
Q19.625 1.51562 22.6719 5.04688
Q25.7344 8.59375 28.0312 13.6406
Q30.3281 18.7031 32.0625 24
Q33.7969 29.2969 34.625 33.0156
L14.2031 33.0156
Q12.6406 26.7031 11.7656 22.1406
Q10.8906 17.5781 10.8906 13.1875
Q10.8906 1.51562 16.3125 1.51562
M14.9844 36.5312
L35.5 36.5312
Q36.5781 40.9219 37.2031 43.875
Q37.8438 46.8281 38.2812 50.0938
Q38.7188 53.375 38.7188 56.2031
Q38.7188 67.9219 33.4062 67.9219
Q27.0469 67.9219 22.4375 57.6875
Q17.8281 47.4688 14.9844 36.5312" id="Cmmi10-b5"/>
      <path d="
M45.4062 27.9844
Q45.4062 37.75 41.375 43.1094
Q37.3594 48.4844 30.0781 48.4844
Q22.8594 48.4844 18.8281 43.1094
Q14.7969 37.75 14.7969 27.9844
Q14.7969 18.2656 18.8281 12.8906
Q22.8594 7.51562 30.0781 7.51562
Q37.3594 7.51562 41.375 12.8906
Q45.4062 18.2656 45.4062 27.9844
M54.3906 6.78125
Q54.3906 -7.17188 48.1875 -13.9844
Q42 -20.7969 29.2031 -20.7969
Q24.4688 -20.7969 20.2656 -20.0938
Q16.0625 -19.3906 12.1094 -17.9219
L12.1094 -9.1875
Q16.0625 -11.3281 19.9219 -12.3438
Q23.7812 -13.375 27.7812 -13.375
Q36.625 -13.375 41.0156 -8.76562
Q45.4062 -4.15625 45.4062 5.17188
L45.4062 9.625
Q42.625 4.78125 38.2812 2.39062
Q33.9375 0 27.875 0
Q17.8281 0 11.6719 7.65625
Q5.51562 15.3281 5.51562 27.9844
Q5.51562 40.6719 11.6719 48.3281
Q17.8281 56 27.875 56
Q33.9375 56 38.2812 53.6094
Q42.625 51.2188 45.4062 46.3906
L45.4062 54.6875
L54.3906 54.6875
z
" id="BitstreamVeraSans-Roman-67"/>
      <path d="
M34.2812 27.4844
Q23.3906 27.4844 19.1875 25
Q14.9844 22.5156 14.9844 16.5
Q14.9844 11.7188 18.1406 8.90625
Q21.2969 6.10938 26.7031 6.10938
Q34.1875 6.10938 38.7031 11.4062
Q43.2188 16.7031 43.2188 25.4844
L43.2188 27.4844
z

M52.2031 31.2031
L52.2031 0
L43.2188 0
L43.2188 8.29688
Q40.1406 3.32812 35.5469 0.953125
Q30.9531 -1.42188 24.3125 -1.42188
Q15.9219 -1.42188 10.9531 3.29688
Q6 8.01562 6 15.9219
Q6 25.1406 12.1719 29.8281
Q18.3594 34.5156 30.6094 34.5156
L43.2188 34.5156
L43.2188 35.4062
Q43.2188 41.6094 39.1406 45
Q35.0625 48.3906 27.6875 48.3906
Q23 48.3906 18.5469 47.2656
Q14.1094 46.1406 10.0156 43.8906
L10.0156 52.2031
Q14.9375 54.1094 19.5781 55.0469
Q24.2188 56 28.6094 56
Q40.4844 56 46.3438 49.8438
Q52.2031 43.7031 52.2031 31.2031" id="BitstreamVeraSans-Roman-61"/>
      <path d="
M9.42188 75.9844
L18.4062 75.9844
L18.4062 0
L9.42188 0
z
" id="BitstreamVeraSans-Roman-6c"/>
     </defs>
     <g transform="translate(16.84 115.05)rotate(-90.0)scale(0.1 -0.1)">
      <use transform="translate(0.0 21.015625)" xlink:href="#BitstreamVeraSans-Roman-61"/>
      <use transform="translate(61.279296875 21.015625)" xlink:href="#BitstreamVeraSans-Roman-6e"/>
      <use transform="translate(124.658203125 21.015625)" xlink:href="#BitstreamVeraSans-Roman-67"/>
      <use transform="translate(188.134765625 21.015625)" xlink:href="#BitstreamVeraSans-Roman-6c"/>
      <use transform="translate(215.91796875 21.015625)" xlink:href="#BitstreamVeraSans-Roman-65"/>
      <use transform="translate(277.44140625 21.015625)" xlink:href="#BitstreamVeraSans-Roman-20"/>
      <use transform="translate(309.228515625 21.015625)" xlink:href="#Cmmi10-b5"/>
     </g>
    </g>
   </g>
   <g id="patch_3">
    <path d="
M51.84 21.6
L204.547 21.6" style="fill:none;stroke:#000000;"/>
   </g>
   <g id="patch_4">
    <path d="
M204.547 172.8
L204.547 21.6" style="fill:none;stroke:#000000;"/>
   </g>
   <g id="patch_5">
    <path d="
M51.84 172.8
L204.547 172.8" style="fill:none;stroke:#000000;"/>
   </g>
   <g id="patch_6">
    <path d="
M51.84 172.8
L51.84 21.6" style="fill:none;stroke:#000000;"/>
   </g>
   <g id="legend_1">
    <g id="patch_7">
     <path d="
M129.907 117.238
L198.547 117.238
L198.547 77.1619
L129.907 77.1619
L129.907 117.238
z
" style="fill:#ffffff;stroke:#000000;"/>
    </g>
    <g id="line2d_29">
     <path d="
M138.307 86.88
L155.107 86.88" style="fill:none;stroke:#0000ff;stroke-width:2;"/>
    </g>
    <g id="line2d_30"/>
    <g id="text_16">
     <!-- $\theta_{\mathrm{NMP}}$ -->
     <defs>
      <path d="
M3.32812 0
L3.32812 3.51562
Q13.625 3.51562 13.625 6.6875
L13.625 61.625
Q13.625 64.7969 3.32812 64.7969
L3.32812 68.3125
L38.9219 68.3125
Q44.3906 68.3125 49.8594 66.0625
Q55.3281 63.8125 58.8594 59.5156
Q62.4062 55.2188 62.4062 49.5156
Q62.4062 43.9531 58.8438 39.75
Q55.2812 35.5469 49.8594 33.375
Q44.4375 31.2031 38.9219 31.2031
L22.9062 31.2031
L22.9062 6.6875
Q22.9062 3.51562 33.2031 3.51562
L33.2031 0
z

M22.6094 34.1875
L36.1875 34.1875
Q41.7031 34.1875 45.1094 35.7656
Q48.5312 37.3594 50.1094 40.7031
Q51.7031 44.0469 51.7031 49.5156
Q51.7031 57.6719 48.1094 61.2344
Q44.5312 64.7969 36.1875 64.7969
L27.6875 64.7969
Q25.875 64.7969 24.875 64.6406
Q23.875 64.5 23.2344 63.7969
Q22.6094 63.0938 22.6094 61.625
z
" id="Cmr10-50"/>
      <path d="
M3.51562 0
L3.51562 3.51562
Q13.8125 3.51562 13.8125 9.42188
L13.8125 61.625
Q13.8125 64.7969 3.51562 64.7969
L3.51562 68.3125
L22.4062 68.3125
Q23.6406 68.3125 24.0312 67.1875
L45.7969 10.5938
L67.5781 67.1875
Q67.9688 68.3125 69.1875 68.3125
L88.0938 68.3125
L88.0938 64.7969
Q77.7812 64.7969 77.7812 61.625
L77.7812 6.6875
Q77.7812 3.51562 88.0938 3.51562
L88.0938 0
L58.9844 0
L58.9844 3.51562
Q69.2812 3.51562 69.2812 6.6875
L69.2812 64.8906
L44.6719 1.125
Q44.2344 0 43.0156 0
Q41.75 0 41.3125 1.125
L17 64.1094
L17 9.42188
Q17 3.51562 27.2969 3.51562
L27.2969 0
z
" id="Cmr10-4d"/>
      <path d="
M3.07812 0
L3.07812 3.51562
Q13.375 3.51562 13.375 9.42188
L13.375 64.2031
Q10.1094 64.7969 3.07812 64.7969
L3.07812 68.3125
L22.2188 68.3125
Q22.7031 68.3125 22.9062 67.9219
L58.2969 15.8281
L58.2969 58.8906
Q58.2969 64.7969 48 64.7969
L48 68.3125
L71.7812 68.3125
L71.7812 64.7969
Q61.5312 64.7969 61.5312 58.8906
L61.5312 0.875
Q61.5312 0.59375 61.1406 0.296875
Q60.75 0 60.5 0
L59.2812 0
Q58.7969 0 58.5938 0.390625
L16.6094 62.2031
L16.6094 9.42188
Q16.6094 3.51562 26.9062 3.51562
L26.9062 0
z
" id="Cmr10-4e"/>
     </defs>
     <g transform="translate(168.306976744 94.2)scale(0.12 -0.12)">
      <use transform="translate(0.0 26.484375)" xlink:href="#Cmmi10-b5"/>
      <use transform="translate(46.923828125 0.975)scale(0.7)" xlink:href="#Cmr10-4e"/>
      <use transform="translate(99.423828125 0.975)scale(0.7)" xlink:href="#Cmr10-4d"/>
      <use transform="translate(163.544921875 0.975)scale(0.7)" xlink:href="#Cmr10-50"/>
     </g>
    </g>
    <g id="line2d_31">
     <path d="
M138.307 105.118
L155.107 105.118" style="fill:none;stroke:#ff0000;stroke-width:2;"/>
    </g>
    <g id="line2d_32"/>
    <g id="text_17">
     <!-- $\theta_{\mathrm{LID}}$ -->
     <defs>
      <path d="
M3.07812 0
L3.07812 3.51562
Q13.375 3.51562 13.375 6.6875
L13.375 61.625
Q13.375 64.7969 3.07812 64.7969
L3.07812 68.3125
L35.5 68.3125
L35.5 64.7969
Q22.7031 64.7969 22.7031 61.625
L22.7031 6.6875
Q22.7031 4.54688 23.9219 4.03125
Q25.1406 3.51562 27.7812 3.51562
L35.5 3.51562
Q42.9688 3.51562 47.0156 6.25
Q51.0781 8.98438 52.75 13.6875
Q54.4375 18.4062 55.3281 26.2188
L58.2031 26.2188
L55.4219 0
z
" id="Cmr10-4c"/>
      <path d="
M2.59375 0
L2.59375 3.51562
Q13.375 3.51562 13.375 6.6875
L13.375 61.625
Q13.375 64.7969 2.59375 64.7969
L2.59375 68.3125
L33.5 68.3125
L33.5 64.7969
Q22.7031 64.7969 22.7031 61.625
L22.7031 6.6875
Q22.7031 3.51562 33.5 3.51562
L33.5 0
z
" id="Cmr10-49"/>
      <path d="
M3.32812 0
L3.32812 3.51562
Q13.625 3.51562 13.625 6.6875
L13.625 61.625
Q13.625 64.7969 3.32812 64.7969
L3.32812 68.3125
L40.1875 68.3125
Q47.0156 68.3125 52.6719 65.3594
Q58.3438 62.4062 62.3438 57.4688
Q66.3594 52.5469 68.5312 46.2969
Q70.7031 40.0469 70.7031 33.5
Q70.7031 27.1562 68.5 21.1719
Q66.3125 15.1875 62.1875 10.375
Q58.0625 5.5625 52.4219 2.78125
Q46.7812 0 40.1875 0
z

M22.6094 6.6875
Q22.6094 4.54688 23.8281 4.03125
Q25.0469 3.51562 27.6875 3.51562
L37.5938 3.51562
Q42.7188 3.51562 47.3281 5.73438
Q51.9531 7.95312 54.9844 11.9219
Q58.1562 16.1094 59.2188 21.3125
Q60.2969 26.5156 60.2969 33.5
Q60.2969 40.7656 59.2188 46.2344
Q58.1562 51.7031 54.9844 56
Q52 60.25 47.4062 62.5156
Q42.8281 64.7969 37.5938 64.7969
L27.6875 64.7969
Q25.875 64.7969 24.875 64.6406
Q23.875 64.5 23.2344 63.7969
Q22.6094 63.0938 22.6094 61.625
z
" id="Cmr10-44"/>
     </defs>
     <g transform="translate(168.306976744 112.438125)scale(0.12 -0.12)">
      <use transform="translate(0.0 26.484375)" xlink:href="#Cmmi10-b5"/>
      <use transform="translate(46.923828125 0.975)scale(0.7)" xlink:href="#Cmr10-4c"/>
      <use transform="translate(90.673828125 0.975)scale(0.7)" xlink:href="#Cmr10-49"/>
      <use transform="translate(115.932617188 0.975)scale(0.7)" xlink:href="#Cmr10-44"/>
     </g>
    </g>
   </g>
  </g>
  <g id="axes_2">
   <g id="patch_8">
    <path d="
M227.453 172.8
L380.16 172.8
L380.16 21.6
L227.453 21.6
z
" style="fill:#ffffff;"/>
   </g>
   <g id="line2d_33">
    <path clip-path="url(#pac5eafc412)" d="
M245.45 166.05
L247.821 165.425
L249.589 165.1
L249.806 162.71
L251.541 161.796
L250.07 157.151
L250.121 152.074
L251.235 147.376
L250.525 144.853
L252.469 140.088
L255.998 139.694
L256.686 139.517
L258.488 134.796
L261.206 132.369
L262.084 130.032
L260.678 127.187
L264.047 124.128
L263.105 123.969
L260.583 118.325
L261.547 116.311
L261.961 115.574
L261.955 116.301
L263.961 114.026
L264.214 114.971
L264.794 111.737
L265.12 108.215
L265.305 106.354
L266.741 98.3092
L267.821 97.0796
L267.324 90.9004
L267.573 90.4806
L269.285 91.2051
L270.088 87.3201
L270.471 86.4195
L269.827 84.8703
L270.65 83.7167
L270.847 80.4155
L273.097 81.1162
L272.986 78.8295
L274.161 79.2123
L276.822 78.1464
L278.489 73.8376
L280.696 75.4163
L280.309 74.2112
L281.112 73.9424
L284.11 73.4293
L286.789 71.389
L289.334 66.4267
L291.251 66.6355
L295.742 64.9229
L296.318 62.6877
L301.389 60.7753
L305.501 56.2441
L309.157 59.8051
L311.306 64.3466
L314.06 62.764
L315.845 57.9026
L318.548 59.0096
L323.169 57.6227
L324.409 61.5055
L328.012 58.5139
L327.339 56.7494
L330.738 56.3786
L332.994 54.9784
L335.274 49.4595
L337.43 47.6811
L340.6 47.1058
L342.382 45.9491
L345.392 45.1906
L344.367 43.9353
L348.291 40.8477
L349.968 39.977
L351.11 36.4402
L352.842 35.7107
L351.448 36.0861
L352.914 36.6297
L355.568 35.2792
L357.265 34.4109
L357.555 35.4642
L360.272 36.0428
L361.037 36.2648
L364.697 41.0752
L364.767 37.6354
L361.933 37.461
L361.33 37.1079
L360.779 39.8875
L361.295 39.3824
L363.635 37.855
L363.058 37.9609
L362.833 36.7649
L362.654 36.3276
L362.87 36.3821
L362.137 37.4808
L362.747 36.3059
L364.791 38.8501
L367.025 38.8676
L365.608 40.5116
L366.459 38.9244" style="fill:none;stroke:#000000;stroke-width:3;"/>
   </g>
   <g id="matplotlib.axis_3">
    <g id="xtick_7">
     <g id="line2d_34">
      <g>
       <use style="stroke:#000000;stroke-linecap:butt;stroke-width:0.5;" x="227.453023256" xlink:href="#mcb557df647" y="172.8"/>
      </g>
     </g>
     <g id="line2d_35">
      <g>
       <use style="stroke:#000000;stroke-linecap:butt;stroke-width:0.5;" x="227.453023256" xlink:href="#mdad270ee8e" y="21.6"/>
      </g>
     </g>
     <g id="text_18">
      <!-- 40$^\circ$ -->
      <g transform="translate(217.653023256 184.5)scale(0.1 -0.1)">
       <use transform="translate(0.0 2.78125)" xlink:href="#BitstreamVeraSans-Roman-34"/>
       <use transform="translate(63.623046875 2.78125)" xlink:href="#BitstreamVeraSans-Roman-30"/>
       <use transform="translate(139.537109375 45.296875)scale(0.7)" xlink:href="#Cmsy10-b1"/>
      </g>
     </g>
    </g>
    <g id="xtick_8">
     <g id="line2d_36">
      <g>
       <use style="stroke:#000000;stroke-linecap:butt;stroke-width:0.5;" x="249.268305648" xlink:href="#mcb557df647" y="172.8"/>
      </g>
     </g>
     <g id="line2d_37">
      <g>
       <use style="stroke:#000000;stroke-linecap:butt;stroke-width:0.5;" x="249.268305648" xlink:href="#mdad270ee8e" y="21.6"/>
      </g>
     </g>
     <g id="text_19">
      <!-- 45$^\circ$ -->
      <defs>
       <path d="
M10.7969 72.9062
L49.5156 72.9062
L49.5156 64.5938
L19.8281 64.5938
L19.8281 46.7344
Q21.9688 47.4688 24.1094 47.8281
Q26.2656 48.1875 28.4219 48.1875
Q40.625 48.1875 47.75 41.5
Q54.8906 34.8125 54.8906 23.3906
Q54.8906 11.625 47.5625 5.09375
Q40.2344 -1.42188 26.9062 -1.42188
Q22.3125 -1.42188 17.5469 -0.640625
Q12.7969 0.140625 7.71875 1.70312
L7.71875 11.625
Q12.1094 9.23438 16.7969 8.0625
Q21.4844 6.89062 26.7031 6.89062
Q35.1562 6.89062 40.0781 11.3281
Q45.0156 15.7656 45.0156 23.3906
Q45.0156 31 40.0781 35.4375
Q35.1562 39.8906 26.7031 39.8906
Q22.75 39.8906 18.8125 39.0156
Q14.8906 38.1406 10.7969 36.2812
z
" id="BitstreamVeraSans-Roman-35"/>
      </defs>
      <g transform="translate(239.468305648 184.4)scale(0.1 -0.1)">
       <use transform="translate(0.0 2.4109375)" xlink:href="#BitstreamVeraSans-Roman-34"/>
       <use transform="translate(63.623046875 2.4109375)" xlink:href="#BitstreamVeraSans-Roman-35"/>
       <use transform="translate(139.537109375 44.9265625)scale(0.7)" xlink:href="#Cmsy10-b1"/>
      </g>
     </g>
    </g>
    <g id="xtick_9">
     <g id="line2d_38">
      <g>
       <use style="stroke:#000000;stroke-linecap:butt;stroke-width:0.5;" x="271.08358804" xlink:href="#mcb557df647" y="172.8"/>
      </g>
     </g>
     <g id="line2d_39">
      <g>
       <use style="stroke:#000000;stroke-linecap:butt;stroke-width:0.5;" x="271.08358804" xlink:href="#mdad270ee8e" y="21.6"/>
      </g>
     </g>
     <g id="text_20">
      <!-- 50$^\circ$ -->
      <g transform="translate(261.28358804 184.5)scale(0.1 -0.1)">
       <use transform="translate(0.0 2.78125)" xlink:href="#BitstreamVeraSans-Roman-35"/>
       <use transform="translate(63.623046875 2.78125)" xlink:href="#BitstreamVeraSans-Roman-30"/>
       <use transform="translate(139.537109375 45.296875)scale(0.7)" xlink:href="#Cmsy10-b1"/>
      </g>
     </g>
    </g>
    <g id="xtick_10">
     <g id="line2d_40">
      <g>
       <use style="stroke:#000000;stroke-linecap:butt;stroke-width:0.5;" x="292.898870432" xlink:href="#mcb557df647" y="172.8"/>
      </g>
     </g>
     <g id="line2d_41">
      <g>
       <use style="stroke:#000000;stroke-linecap:butt;stroke-width:0.5;" x="292.898870432" xlink:href="#mdad270ee8e" y="21.6"/>
      </g>
     </g>
     <g id="text_21">
      <!-- 55$^\circ$ -->
      <g transform="translate(283.098870432 184.4)scale(0.1 -0.1)">
       <use transform="translate(0.0 2.4109375)" xlink:href="#BitstreamVeraSans-Roman-35"/>
       <use transform="translate(63.623046875 2.4109375)" xlink:href="#BitstreamVeraSans-Roman-35"/>
       <use transform="translate(139.537109375 44.9265625)scale(0.7)" xlink:href="#Cmsy10-b1"/>
      </g>
     </g>
    </g>
    <g id="xtick_11">
     <g id="line2d_42">
      <g>
       <use style="stroke:#000000;stroke-linecap:butt;stroke-width:0.5;" x="314.714152824" xlink:href="#mcb557df647" y="172.8"/>
      </g>
     </g>
     <g id="line2d_43">
      <g>
       <use style="stroke:#000000;stroke-linecap:butt;stroke-width:0.5;" x="314.714152824" xlink:href="#mdad270ee8e" y="21.6"/>
      </g>
     </g>
     <g id="text_22">
      <!-- 60$^\circ$ -->
      <g transform="translate(304.914152824 184.5)scale(0.1 -0.1)">
       <use transform="translate(0.0 2.78125)" xlink:href="#BitstreamVeraSans-Roman-36"/>
       <use transform="translate(63.623046875 2.78125)" xlink:href="#BitstreamVeraSans-Roman-30"/>
       <use transform="translate(139.537109375 45.296875)scale(0.7)" xlink:href="#Cmsy10-b1"/>
      </g>
     </g>
    </g>
    <g id="xtick_12">
     <g id="line2d_44">
      <g>
       <use style="stroke:#000000;stroke-linecap:butt;stroke-width:0.5;" x="336.529435216" xlink:href="#mcb557df647" y="172.8"/>
      </g>
     </g>
     <g id="line2d_45">
      <g>
       <use style="stroke:#000000;stroke-linecap:butt;stroke-width:0.5;" x="336.529435216" xlink:href="#mdad270ee8e" y="21.6"/>
      </g>
     </g>
     <g id="text_23">
      <!-- 65$^\circ$ -->
      <g transform="translate(326.729435216 184.5)scale(0.1 -0.1)">
       <use transform="translate(0.0 2.78125)" xlink:href="#BitstreamVeraSans-Roman-36"/>
       <use transform="translate(63.623046875 2.78125)" xlink:href="#BitstreamVeraSans-Roman-35"/>
       <use transform="translate(139.537109375 45.296875)scale(0.7)" xlink:href="#Cmsy10-b1"/>
      </g>
     </g>
    </g>
    <g id="xtick_13">
     <g id="line2d_46">
      <g>
       <use style="stroke:#000000;stroke-linecap:butt;stroke-width:0.5;" x="358.344717608" xlink:href="#mcb557df647" y="172.8"/>
      </g>
     </g>
     <g id="line2d_47">
      <g>
       <use style="stroke:#000000;stroke-linecap:butt;stroke-width:0.5;" x="358.344717608" xlink:href="#mdad270ee8e" y="21.6"/>
      </g>
     </g>
     <g id="text_24">
      <!-- 70$^\circ$ -->
      <defs>
       <path d="
M8.20312 72.9062
L55.0781 72.9062
L55.0781 68.7031
L28.6094 0
L18.3125 0
L43.2188 64.5938
L8.20312 64.5938
z
" id="BitstreamVeraSans-Roman-37"/>
      </defs>
      <g transform="translate(348.544717608 184.5)scale(0.1 -0.1)">
       <use transform="translate(0.0 2.78125)" xlink:href="#BitstreamVeraSans-Roman-37"/>
       <use transform="translate(63.623046875 2.78125)" xlink:href="#BitstreamVeraSans-Roman-30"/>
       <use transform="translate(139.537109375 45.296875)scale(0.7)" xlink:href="#Cmsy10-b1"/>
      </g>
     </g>
    </g>
    <g id="xtick_14">
     <g id="line2d_48">
      <g>
       <use style="stroke:#000000;stroke-linecap:butt;stroke-width:0.5;" x="380.16" xlink:href="#mcb557df647" y="172.8"/>
      </g>
     </g>
     <g id="line2d_49">
      <g>
       <use style="stroke:#000000;stroke-linecap:butt;stroke-width:0.5;" x="380.16" xlink:href="#mdad270ee8e" y="21.6"/>
      </g>
     </g>
     <g id="text_25">
      <!-- 75$^\circ$ -->
      <g transform="translate(370.36 184.4)scale(0.1 -0.1)">
       <use transform="translate(0.0 2.4109375)" xlink:href="#BitstreamVeraSans-Roman-37"/>
       <use transform="translate(63.623046875 2.4109375)" xlink:href="#BitstreamVeraSans-Roman-35"/>
       <use transform="translate(139.537109375 44.9265625)scale(0.7)" xlink:href="#Cmsy10-b1"/>
      </g>
     </g>
    </g>
    <g id="text_26">
     <!-- NMP-CORE angle $\theta_{\mathrm{NMP}}$ -->
     <defs>
      <path d="
M39.4062 66.2188
Q28.6562 66.2188 22.3281 58.2031
Q16.0156 50.2031 16.0156 36.375
Q16.0156 22.6094 22.3281 14.5938
Q28.6562 6.59375 39.4062 6.59375
Q50.1406 6.59375 56.4219 14.5938
Q62.7031 22.6094 62.7031 36.375
Q62.7031 50.2031 56.4219 58.2031
Q50.1406 66.2188 39.4062 66.2188
M39.4062 74.2188
Q54.7344 74.2188 63.9062 63.9375
Q73.0938 53.6562 73.0938 36.375
Q73.0938 19.1406 63.9062 8.85938
Q54.7344 -1.42188 39.4062 -1.42188
Q24.0312 -1.42188 14.8125 8.82812
Q5.60938 19.0938 5.60938 36.375
Q5.60938 53.6562 14.8125 63.9375
Q24.0312 74.2188 39.4062 74.2188" id="BitstreamVeraSans-Roman-4f"/>
      <path d="
M9.8125 72.9062
L23.0938 72.9062
L55.4219 11.9219
L55.4219 72.9062
L64.9844 72.9062
L64.9844 0
L51.7031 0
L19.3906 60.9844
L19.3906 0
L9.8125 0
z
" id="BitstreamVeraSans-Roman-4e"/>
      <path d="
M9.8125 72.9062
L24.5156 72.9062
L43.1094 23.2969
L61.8125 72.9062
L76.5156 72.9062
L76.5156 0
L66.8906 0
L66.8906 64.0156
L48.0938 14.0156
L38.1875 14.0156
L19.3906 64.0156
L19.3906 0
L9.8125 0
z
" id="BitstreamVeraSans-Roman-4d"/>
      <path d="
M9.8125 72.9062
L55.9062 72.9062
L55.9062 64.5938
L19.6719 64.5938
L19.6719 43.0156
L54.3906 43.0156
L54.3906 34.7188
L19.6719 34.7188
L19.6719 8.29688
L56.7812 8.29688
L56.7812 0
L9.8125 0
z
" id="BitstreamVeraSans-Roman-45"/>
      <path d="
M19.6719 64.7969
L19.6719 37.4062
L32.0781 37.4062
Q38.9688 37.4062 42.7188 40.9688
Q46.4844 44.5312 46.4844 51.125
Q46.4844 57.6719 42.7188 61.2344
Q38.9688 64.7969 32.0781 64.7969
z

M9.8125 72.9062
L32.0781 72.9062
Q44.3438 72.9062 50.6094 67.3594
Q56.8906 61.8125 56.8906 51.125
Q56.8906 40.3281 50.6094 34.8125
Q44.3438 29.2969 32.0781 29.2969
L19.6719 29.2969
L19.6719 0
L9.8125 0
z
" id="BitstreamVeraSans-Roman-50"/>
      <path d="
M44.3906 34.1875
Q47.5625 33.1094 50.5625 29.5938
Q53.5625 26.0781 56.5938 19.9219
L66.6094 0
L56 0
L46.6875 18.7031
Q43.0625 26.0312 39.6719 28.4219
Q36.2812 30.8125 30.4219 30.8125
L19.6719 30.8125
L19.6719 0
L9.8125 0
L9.8125 72.9062
L32.0781 72.9062
Q44.5781 72.9062 50.7344 67.6719
Q56.8906 62.4531 56.8906 51.9062
Q56.8906 45.0156 53.6875 40.4688
Q50.4844 35.9375 44.3906 34.1875
M19.6719 64.7969
L19.6719 38.9219
L32.0781 38.9219
Q39.2031 38.9219 42.8438 42.2188
Q46.4844 45.5156 46.4844 51.9062
Q46.4844 58.2969 42.8438 61.5469
Q39.2031 64.7969 32.0781 64.7969
z
" id="BitstreamVeraSans-Roman-52"/>
      <path d="
M64.4062 67.2812
L64.4062 56.8906
Q59.4219 61.5312 53.7812 63.8125
Q48.1406 66.1094 41.7969 66.1094
Q29.2969 66.1094 22.6562 58.4688
Q16.0156 50.8281 16.0156 36.375
Q16.0156 21.9688 22.6562 14.3281
Q29.2969 6.6875 41.7969 6.6875
Q48.1406 6.6875 53.7812 8.98438
Q59.4219 11.2812 64.4062 15.9219
L64.4062 5.60938
Q59.2344 2.09375 53.4375 0.328125
Q47.6562 -1.42188 41.2188 -1.42188
Q24.6562 -1.42188 15.125 8.70312
Q5.60938 18.8438 5.60938 36.375
Q5.60938 53.9531 15.125 64.0781
Q24.6562 74.2188 41.2188 74.2188
Q47.75 74.2188 53.5312 72.4844
Q59.3281 70.75 64.4062 67.2812" id="BitstreamVeraSans-Roman-43"/>
      <path d="
M4.89062 31.3906
L31.2031 31.3906
L31.2031 23.3906
L4.89062 23.3906
z
" id="BitstreamVeraSans-Roman-2d"/>
     </defs>
     <g transform="translate(249.256511628 199.7)scale(0.1 -0.1)">
      <use transform="translate(0.0 26.015625)" xlink:href="#BitstreamVeraSans-Roman-4e"/>
      <use transform="translate(74.8046875 26.015625)" xlink:href="#BitstreamVeraSans-Roman-4d"/>
      <use transform="translate(161.083984375 26.015625)" xlink:href="#BitstreamVeraSans-Roman-50"/>
      <use transform="translate(221.38671875 26.015625)" xlink:href="#BitstreamVeraSans-Roman-2d"/>
      <use transform="translate(257.470703125 26.015625)" xlink:href="#BitstreamVeraSans-Roman-43"/>
      <use transform="translate(327.294921875 26.015625)" xlink:href="#BitstreamVeraSans-Roman-4f"/>
      <use transform="translate(406.005859375 26.015625)" xlink:href="#BitstreamVeraSans-Roman-52"/>
      <use transform="translate(475.48828125 26.015625)" xlink:href="#BitstreamVeraSans-Roman-45"/>
      <use transform="translate(538.671875 26.015625)" xlink:href="#BitstreamVeraSans-Roman-20"/>
      <use transform="translate(570.458984375 26.015625)" xlink:href="#BitstreamVeraSans-Roman-61"/>
      <use transform="translate(631.73828125 26.015625)" xlink:href="#BitstreamVeraSans-Roman-6e"/>
      <use transform="translate(695.1171875 26.015625)" xlink:href="#BitstreamVeraSans-Roman-67"/>
      <use transform="translate(758.59375 26.015625)" xlink:href="#BitstreamVeraSans-Roman-6c"/>
      <use transform="translate(786.376953125 26.015625)" xlink:href="#BitstreamVeraSans-Roman-65"/>
      <use transform="translate(847.900390625 26.015625)" xlink:href="#BitstreamVeraSans-Roman-20"/>
      <use transform="translate(879.6875 26.015625)" xlink:href="#Cmmi10-b5"/>
      <use transform="translate(926.611328125 0.50625)scale(0.7)" xlink:href="#Cmr10-4e"/>
      <use transform="translate(979.111328125 0.50625)scale(0.7)" xlink:href="#Cmr10-4d"/>
      <use transform="translate(1043.23242188 0.50625)scale(0.7)" xlink:href="#Cmr10-50"/>
     </g>
    </g>
   </g>
   <g id="matplotlib.axis_4">
    <g id="ytick_8">
     <g id="line2d_50">
      <g>
       <use style="stroke:#000000;stroke-linecap:butt;stroke-width:0.5;" x="380.16" xlink:href="#m0d5b0a6425" y="172.8"/>
      </g>
     </g>
     <g id="text_27">
      <!-- 105$^\circ$ -->
      <g transform="translate(384.16 176.65)scale(0.1 -0.1)">
       <use transform="translate(0.0 2.78125)" xlink:href="#BitstreamVeraSans-Roman-31"/>
       <use transform="translate(63.623046875 2.78125)" xlink:href="#BitstreamVeraSans-Roman-30"/>
       <use transform="translate(127.24609375 2.78125)" xlink:href="#BitstreamVeraSans-Roman-35"/>
       <use transform="translate(203.16015625 45.296875)scale(0.7)" xlink:href="#Cmsy10-b1"/>
      </g>
     </g>
    </g>
    <g id="ytick_9">
     <g id="line2d_51">
      <g>
       <use style="stroke:#000000;stroke-linecap:butt;stroke-width:0.5;" x="380.16" xlink:href="#m0d5b0a6425" y="156.0"/>
      </g>
     </g>
     <g id="text_28">
      <!-- 110$^\circ$ -->
      <g transform="translate(384.16 159.85)scale(0.1 -0.1)">
       <use transform="translate(0.0 2.78125)" xlink:href="#BitstreamVeraSans-Roman-31"/>
       <use transform="translate(63.623046875 2.78125)" xlink:href="#BitstreamVeraSans-Roman-31"/>
       <use transform="translate(127.24609375 2.78125)" xlink:href="#BitstreamVeraSans-Roman-30"/>
       <use transform="translate(203.16015625 45.296875)scale(0.7)" xlink:href="#Cmsy10-b1"/>
      </g>
     </g>
    </g>
    <g id="ytick_10">
     <g id="line2d_52">
      <g>
       <use style="stroke:#000000;stroke-linecap:butt;stroke-width:0.5;" x="380.16" xlink:href="#m0d5b0a6425" y="139.2"/>
      </g>
     </g>
     <g id="text_29">
      <!-- 115$^\circ$ -->
      <g transform="translate(384.16 143.0)scale(0.1 -0.1)">
       <use transform="translate(0.0 2.4109375)" xlink:href="#BitstreamVeraSans-Roman-31"/>
       <use transform="translate(63.623046875 2.4109375)" xlink:href="#BitstreamVeraSans-Roman-31"/>
       <use transform="translate(127.24609375 2.4109375)" xlink:href="#BitstreamVeraSans-Roman-35"/>
       <use transform="translate(203.16015625 44.9265625)scale(0.7)" xlink:href="#Cmsy10-b1"/>
      </g>
     </g>
    </g>
    <g id="ytick_11">
     <g id="line2d_53">
      <g>
       <use style="stroke:#000000;stroke-linecap:butt;stroke-width:0.5;" x="380.16" xlink:href="#m0d5b0a6425" y="122.4"/>
      </g>
     </g>
     <g id="text_30">
      <!-- 120$^\circ$ -->
      <g transform="translate(384.16 126.25)scale(0.1 -0.1)">
       <use transform="translate(0.0 2.78125)" xlink:href="#BitstreamVeraSans-Roman-31"/>
       <use transform="translate(63.623046875 2.78125)" xlink:href="#BitstreamVeraSans-Roman-32"/>
       <use transform="translate(127.24609375 2.78125)" xlink:href="#BitstreamVeraSans-Roman-30"/>
       <use transform="translate(203.16015625 45.296875)scale(0.7)" xlink:href="#Cmsy10-b1"/>
      </g>
     </g>
    </g>
    <g id="ytick_12">
     <g id="line2d_54">
      <g>
       <use style="stroke:#000000;stroke-linecap:butt;stroke-width:0.5;" x="380.16" xlink:href="#m0d5b0a6425" y="105.6"/>
      </g>
     </g>
     <g id="text_31">
      <!-- 125$^\circ$ -->
      <g transform="translate(384.16 109.45)scale(0.1 -0.1)">
       <use transform="translate(0.0 2.78125)" xlink:href="#BitstreamVeraSans-Roman-31"/>
       <use transform="translate(63.623046875 2.78125)" xlink:href="#BitstreamVeraSans-Roman-32"/>
       <use transform="translate(127.24609375 2.78125)" xlink:href="#BitstreamVeraSans-Roman-35"/>
       <use transform="translate(203.16015625 45.296875)scale(0.7)" xlink:href="#Cmsy10-b1"/>
      </g>
     </g>
    </g>
    <g id="ytick_13">
     <g id="line2d_55">
      <g>
       <use style="stroke:#000000;stroke-linecap:butt;stroke-width:0.5;" x="380.16" xlink:href="#m0d5b0a6425" y="88.8"/>
      </g>
     </g>
     <g id="text_32">
      <!-- 130$^\circ$ -->
      <defs>
       <path d="
M40.5781 39.3125
Q47.6562 37.7969 51.625 33
Q55.6094 28.2188 55.6094 21.1875
Q55.6094 10.4062 48.1875 4.48438
Q40.7656 -1.42188 27.0938 -1.42188
Q22.5156 -1.42188 17.6562 -0.515625
Q12.7969 0.390625 7.625 2.20312
L7.625 11.7188
Q11.7188 9.32812 16.5938 8.10938
Q21.4844 6.89062 26.8125 6.89062
Q36.0781 6.89062 40.9375 10.5469
Q45.7969 14.2031 45.7969 21.1875
Q45.7969 27.6406 41.2812 31.2656
Q36.7656 34.9062 28.7188 34.9062
L20.2188 34.9062
L20.2188 43.0156
L29.1094 43.0156
Q36.375 43.0156 40.2344 45.9219
Q44.0938 48.8281 44.0938 54.2969
Q44.0938 59.9062 40.1094 62.9062
Q36.1406 65.9219 28.7188 65.9219
Q24.6562 65.9219 20.0156 65.0312
Q15.375 64.1562 9.8125 62.3125
L9.8125 71.0938
Q15.4375 72.6562 20.3438 73.4375
Q25.25 74.2188 29.5938 74.2188
Q40.8281 74.2188 47.3594 69.1094
Q53.9062 64.0156 53.9062 55.3281
Q53.9062 49.2656 50.4375 45.0938
Q46.9688 40.9219 40.5781 39.3125" id="BitstreamVeraSans-Roman-33"/>
      </defs>
      <g transform="translate(384.16 92.65)scale(0.1 -0.1)">
       <use transform="translate(0.0 2.78125)" xlink:href="#BitstreamVeraSans-Roman-31"/>
       <use transform="translate(63.623046875 2.78125)" xlink:href="#BitstreamVeraSans-Roman-33"/>
       <use transform="translate(127.24609375 2.78125)" xlink:href="#BitstreamVeraSans-Roman-30"/>
       <use transform="translate(203.16015625 45.296875)scale(0.7)" xlink:href="#Cmsy10-b1"/>
      </g>
     </g>
    </g>
    <g id="ytick_14">
     <g id="line2d_56">
      <g>
       <use style="stroke:#000000;stroke-linecap:butt;stroke-width:0.5;" x="380.16" xlink:href="#m0d5b0a6425" y="72.0"/>
      </g>
     </g>
     <g id="text_33">
      <!-- 135$^\circ$ -->
      <g transform="translate(384.16 75.85)scale(0.1 -0.1)">
       <use transform="translate(0.0 2.78125)" xlink:href="#BitstreamVeraSans-Roman-31"/>
       <use transform="translate(63.623046875 2.78125)" xlink:href="#BitstreamVeraSans-Roman-33"/>
       <use transform="translate(127.24609375 2.78125)" xlink:href="#BitstreamVeraSans-Roman-35"/>
       <use transform="translate(203.16015625 45.296875)scale(0.7)" xlink:href="#Cmsy10-b1"/>
      </g>
     </g>
    </g>
    <g id="ytick_15">
     <g id="line2d_57">
      <g>
       <use style="stroke:#000000;stroke-linecap:butt;stroke-width:0.5;" x="380.16" xlink:href="#m0d5b0a6425" y="55.2"/>
      </g>
     </g>
     <g id="text_34">
      <!-- 140$^\circ$ -->
      <g transform="translate(384.16 59.05)scale(0.1 -0.1)">
       <use transform="translate(0.0 2.78125)" xlink:href="#BitstreamVeraSans-Roman-31"/>
       <use transform="translate(63.623046875 2.78125)" xlink:href="#BitstreamVeraSans-Roman-34"/>
       <use transform="translate(127.24609375 2.78125)" xlink:href="#BitstreamVeraSans-Roman-30"/>
       <use transform="translate(203.16015625 45.296875)scale(0.7)" xlink:href="#Cmsy10-b1"/>
      </g>
     </g>
    </g>
    <g id="ytick_16">
     <g id="line2d_58">
      <g>
       <use style="stroke:#000000;stroke-linecap:butt;stroke-width:0.5;" x="380.16" xlink:href="#m0d5b0a6425" y="38.4"/>
      </g>
     </g>
     <g id="text_35">
      <!-- 145$^\circ$ -->
      <g transform="translate(384.16 42.2)scale(0.1 -0.1)">
       <use transform="translate(0.0 2.4109375)" xlink:href="#BitstreamVeraSans-Roman-31"/>
       <use transform="translate(63.623046875 2.4109375)" xlink:href="#BitstreamVeraSans-Roman-34"/>
       <use transform="translate(127.24609375 2.4109375)" xlink:href="#BitstreamVeraSans-Roman-35"/>
       <use transform="translate(203.16015625 44.9265625)scale(0.7)" xlink:href="#Cmsy10-b1"/>
      </g>
     </g>
    </g>
    <g id="ytick_17">
     <g id="line2d_59">
      <g>
       <use style="stroke:#000000;stroke-linecap:butt;stroke-width:0.5;" x="380.16" xlink:href="#m0d5b0a6425" y="21.6"/>
      </g>
     </g>
     <g id="text_36">
      <!-- 150$^\circ$ -->
      <g transform="translate(384.16 25.45)scale(0.1 -0.1)">
       <use transform="translate(0.0 2.78125)" xlink:href="#BitstreamVeraSans-Roman-31"/>
       <use transform="translate(63.623046875 2.78125)" xlink:href="#BitstreamVeraSans-Roman-35"/>
       <use transform="translate(127.24609375 2.78125)" xlink:href="#BitstreamVeraSans-Roman-30"/>
       <use transform="translate(203.16015625 45.296875)scale(0.7)" xlink:href="#Cmsy10-b1"/>
      </g>
     </g>
    </g>
    <g id="text_37">
     <!-- LID-CORE angle $\theta_{\mathrm{LID}}$ -->
     <defs>
      <path d="
M19.6719 64.7969
L19.6719 8.10938
L31.5938 8.10938
Q46.6875 8.10938 53.6875 14.9375
Q60.6875 21.7812 60.6875 36.5312
Q60.6875 51.1719 53.6875 57.9844
Q46.6875 64.7969 31.5938 64.7969
z

M9.8125 72.9062
L30.0781 72.9062
Q51.2656 72.9062 61.1719 64.0938
Q71.0938 55.2812 71.0938 36.5312
Q71.0938 17.6719 61.125 8.82812
Q51.1719 0 30.0781 0
L9.8125 0
z
" id="BitstreamVeraSans-Roman-44"/>
      <path d="
M9.8125 72.9062
L19.6719 72.9062
L19.6719 8.29688
L55.1719 8.29688
L55.1719 0
L9.8125 0
z
" id="BitstreamVeraSans-Roman-4c"/>
      <path d="
M9.8125 72.9062
L19.6719 72.9062
L19.6719 0
L9.8125 0
z
" id="BitstreamVeraSans-Roman-49"/>
     </defs>
     <g transform="translate(425.36 146.7)rotate(-90.0)scale(0.1 -0.1)">
      <use transform="translate(0.0 26.015625)" xlink:href="#BitstreamVeraSans-Roman-4c"/>
      <use transform="translate(55.712890625 26.015625)" xlink:href="#BitstreamVeraSans-Roman-49"/>
      <use transform="translate(85.205078125 26.015625)" xlink:href="#BitstreamVeraSans-Roman-44"/>
      <use transform="translate(162.20703125 26.015625)" xlink:href="#BitstreamVeraSans-Roman-2d"/>
      <use transform="translate(198.291015625 26.015625)" xlink:href="#BitstreamVeraSans-Roman-43"/>
      <use transform="translate(268.115234375 26.015625)" xlink:href="#BitstreamVeraSans-Roman-4f"/>
      <use transform="translate(346.826171875 26.015625)" xlink:href="#BitstreamVeraSans-Roman-52"/>
      <use transform="translate(416.30859375 26.015625)" xlink:href="#BitstreamVeraSans-Roman-45"/>
      <use transform="translate(479.4921875 26.015625)" xlink:href="#BitstreamVeraSans-Roman-20"/>
      <use transform="translate(511.279296875 26.015625)" xlink:href="#BitstreamVeraSans-Roman-61"/>
      <use transform="translate(572.55859375 26.015625)" xlink:href="#BitstreamVeraSans-Roman-6e"/>
      <use transform="translate(635.9375 26.015625)" xlink:href="#BitstreamVeraSans-Roman-67"/>
      <use transform="translate(699.4140625 26.015625)" xlink:href="#BitstreamVeraSans-Roman-6c"/>
      <use transform="translate(727.197265625 26.015625)" xlink:href="#BitstreamVeraSans-Roman-65"/>
      <use transform="translate(788.720703125 26.015625)" xlink:href="#BitstreamVeraSans-Roman-20"/>
      <use transform="translate(820.5078125 26.015625)" xlink:href="#Cmmi10-b5"/>
      <use transform="translate(867.431640625 0.50625)scale(0.7)" xlink:href="#Cmr10-4c"/>
      <use transform="translate(911.181640625 0.50625)scale(0.7)" xlink:href="#Cmr10-49"/>
      <use transform="translate(936.440429688 0.50625)scale(0.7)" xlink:href="#Cmr10-44"/>
     </g>
    </g>
   </g>
   <g id="patch_9">
    <path d="
M227.453 21.6
L380.16 21.6" style="fill:none;stroke:#000000;"/>
   </g>
   <g id="patch_10">
    <path d="
M380.16 172.8
L380.16 21.6" style="fill:none;stroke:#000000;"/>
   </g>
   <g id="patch_11">
    <path d="
M227.453 172.8
L380.16 172.8" style="fill:none;stroke:#000000;"/>
   </g>
   <g id="patch_12">
    <path d="
M227.453 172.8
L227.453 21.6" style="fill:none;stroke:#000000;"/>
   </g>
  </g>
 </g>
 <defs>
  <clipPath id="pac5eafc412">
   <rect height="151.2" width="152.706976744" x="227.453023256" y="21.6"/>
  </clipPath>
  <clipPath id="pa20410386e">
   <rect height="151.2" width="152.706976744" x="51.84" y="21.6"/>
  </clipPath>
 </defs>
</svg>
